<svg width="17" height="17" viewBox="0 0 17 17" fill="none" xmlns="http://www.w3.org/2000/svg">
<path d="M8.49984 14.875C12.4119 14.875 15.5832 11.7037 15.5832 7.79171C15.5832 3.87969 12.4119 0.708374 8.49984 0.708374C4.58782 0.708374 1.4165 3.87969 1.4165 7.79171C1.4165 11.7037 4.58782 14.875 8.49984 14.875Z" fill="#FFF59D"/>
<path d="M13.1044 7.79166C13.1044 5.06458 10.7669 2.90417 7.96895 3.22291C5.84395 3.47083 4.14395 5.17083 3.93145 7.29583C3.75436 8.925 4.42728 10.3771 5.56061 11.2979C6.05645 11.7229 6.3752 12.325 6.3752 12.9979V13.1042H10.6252V13.0687C10.6252 12.4312 10.9085 11.7937 11.4044 11.3687C12.4314 10.5187 13.1044 9.24375 13.1044 7.79166Z" fill="#FBC02D"/>
<path d="M10.8374 7.15416L9.7749 6.44583C9.66865 6.37499 9.49157 6.37499 9.38532 6.44583L8.4999 7.01249L7.6499 6.44583C7.54365 6.37499 7.36657 6.37499 7.26032 6.44583L6.19782 7.15416C6.12699 7.22499 6.05615 7.29582 6.05615 7.40207C6.05615 7.50832 6.05615 7.61458 6.12699 7.68541L7.47282 9.34999V13.1042H8.18115V9.20832C8.18115 9.13749 8.14574 9.06666 8.11032 8.99582L6.94157 7.54374L7.47282 7.18957L8.32282 7.75624C8.42907 7.82707 8.60615 7.82707 8.7124 7.75624L9.5624 7.18957L10.0937 7.54374L8.9249 8.99582C8.88949 9.06666 8.85407 9.13749 8.85407 9.20832V13.1042H9.5624V9.34999L10.9082 7.68541C10.9791 7.61458 11.0145 7.50832 10.9791 7.40207C10.9437 7.29582 10.9082 7.18958 10.8374 7.15416Z" fill="#FFF59D"/>
<path d="M8.5 16.6459C9.0868 16.6459 9.5625 16.1702 9.5625 15.5834C9.5625 14.9966 9.0868 14.5209 8.5 14.5209C7.9132 14.5209 7.4375 14.9966 7.4375 15.5834C7.4375 16.1702 7.9132 16.6459 8.5 16.6459Z" fill="#5C6BC0"/>
<path d="M9.20833 15.9375H7.79167C7.0125 15.9375 6.375 15.3 6.375 14.5208V12.75H10.625V14.5208C10.625 15.3 9.9875 15.9375 9.20833 15.9375Z" fill="#9FA8DA"/>
<path d="M10.625 14.5208L6.51667 15.0875C6.62292 15.3354 6.83542 15.5833 7.08333 15.725L10.4125 15.2645C10.5542 15.052 10.625 14.8041 10.625 14.5208ZM6.375 13.7062V14.4145L10.625 13.8125V13.1041L6.375 13.7062Z" fill="#5C6BC0"/>
</svg>
