<svg width="966" height="322" viewBox="0 0 966 322" fill="none" xmlns="http://www.w3.org/2000/svg">
<path d="M134.167 268.333C134.167 275.45 136.994 282.275 142.026 287.307C147.059 292.34 153.884 295.167 161 295.167C168.117 295.167 174.942 292.34 179.974 287.307C185.007 282.275 187.834 275.45 187.834 268.333M134.167 268.333C134.167 261.217 136.994 254.392 142.026 249.359C147.059 244.327 153.884 241.5 161 241.5C168.117 241.5 174.942 244.327 179.974 249.359C185.007 254.392 187.834 261.217 187.834 268.333M134.167 268.333H53.667M187.834 268.333H268.334M161 201.25L134.167 174.417H93.917C90.3587 174.417 86.9461 173.003 84.43 170.487C81.9139 167.971 80.5003 164.558 80.5003 161V53.6667C80.5003 50.1083 81.9139 46.6958 84.43 44.1796C86.9461 41.6635 90.3587 40.25 93.917 40.25H228.084C231.642 40.25 235.055 41.6635 237.571 44.1796C240.087 46.6958 241.5 50.1083 241.5 53.6667V161C241.5 164.558 240.087 167.971 237.571 170.487C235.055 173.003 231.642 174.417 228.084 174.417H187.834L161 201.25Z" stroke="#222222" stroke-width="6.00219" stroke-linecap="round" stroke-linejoin="round"/>
<mask id="mask0_3621_6138" style="mask-type:luminance" maskUnits="userSpaceOnUse" x="120" y="65" width="83" height="83">
<path d="M202.211 65H120V147.195H202.211V65Z" fill="white"/>
</mask>
<g mask="url(#mask0_3621_6138)">
<path d="M175.787 73.8068H184.595C186.153 73.8068 187.646 74.4253 188.748 75.5264C189.849 76.6273 190.468 78.1207 190.468 79.6778V138.388C190.468 139.946 189.849 141.439 188.748 142.54C187.646 143.641 186.153 144.259 184.595 144.259H137.618C136.06 144.259 134.567 143.641 133.465 142.54C132.364 141.439 131.746 139.946 131.746 138.388V79.6778C131.746 78.1207 132.364 76.6273 133.465 75.5264C134.567 74.4253 136.06 73.8068 137.618 73.8068H146.426" stroke="#222222" stroke-width="5.45" stroke-linecap="round" stroke-linejoin="round"/>
<path d="M169.914 67.9348H152.297C149.054 67.9348 146.425 70.5633 146.425 73.8058V76.7412C146.425 79.9838 149.054 82.6125 152.297 82.6125H169.914C173.157 82.6125 175.786 79.9838 175.786 76.7412V73.8058C175.786 70.5633 173.157 67.9348 169.914 67.9348Z" stroke="#222222" stroke-width="5.45" stroke-linecap="round" stroke-linejoin="round"/>
</g>
<path d="M161 248.833C150.458 248.833 141.833 257.458 141.833 268C141.833 278.542 150.458 287.167 161 287.167C171.542 287.167 180.167 278.542 180.167 268C180.167 257.458 171.542 248.833 161 248.833ZM157.167 277.583L147.583 268L150.286 265.298L157.167 272.159L171.714 257.612L174.417 260.333L157.167 277.583Z" fill="#71B770"/>
<path d="M456.167 268.333C456.167 275.45 458.994 282.275 464.026 287.307C469.059 292.34 475.884 295.167 483 295.167C490.117 295.167 496.942 292.34 501.974 287.307C507.007 282.275 509.834 275.45 509.834 268.333M456.167 268.333C456.167 261.217 458.994 254.392 464.026 249.359C469.059 244.327 475.884 241.5 483 241.5C490.117 241.5 496.942 244.327 501.974 249.359C507.007 254.392 509.834 261.217 509.834 268.333M456.167 268.333H375.667M509.834 268.333H590.334M483 201.25L456.167 174.417H415.917C412.359 174.417 408.946 173.003 406.43 170.487C403.914 167.971 402.5 164.558 402.5 161V53.6667C402.5 50.1083 403.914 46.6958 406.43 44.1796C408.946 41.6635 412.359 40.25 415.917 40.25H550.084C553.642 40.25 557.055 41.6635 559.571 44.1796C562.087 46.6958 563.5 50.1083 563.5 53.6667V161C563.5 164.558 562.087 167.971 559.571 170.487C557.055 173.003 553.642 174.417 550.084 174.417H509.834L483 201.25Z" stroke="#BD1A8D" stroke-width="6.00219" stroke-linecap="round" stroke-linejoin="round"/>
<path d="M486.041 99.4924C486.041 98.9085 486.273 98.3485 486.686 97.9356C487.099 97.5227 487.659 97.2908 488.243 97.2908H504.392C504.976 97.2908 505.536 97.5227 505.949 97.9356C506.362 98.3485 506.594 98.9085 506.594 99.4924C506.594 100.076 506.362 100.636 505.949 101.049C505.536 101.462 504.976 101.694 504.392 101.694H488.243C487.659 101.694 487.099 101.462 486.686 101.049C486.273 100.636 486.041 100.076 486.041 99.4924ZM488.243 109.033C487.659 109.033 487.099 109.265 486.686 109.678C486.273 110.091 486.041 110.651 486.041 111.235C486.041 111.818 486.273 112.378 486.686 112.791C487.099 113.204 487.659 113.436 488.243 113.436H504.392C504.976 113.436 505.536 113.204 505.949 112.791C506.362 112.378 506.594 111.818 506.594 111.235C506.594 110.651 506.362 110.091 505.949 109.678C505.536 109.265 504.976 109.033 504.392 109.033H488.243ZM475.031 99.4924C475.031 100.855 474.49 102.162 473.526 103.125C472.562 104.088 471.256 104.63 469.893 104.63C468.53 104.63 467.223 104.088 466.26 103.125C465.296 102.162 464.755 100.855 464.755 99.4924C464.755 98.1299 465.296 96.8233 466.26 95.8599C467.223 94.8965 468.53 94.3552 469.893 94.3552C471.256 94.3552 472.562 94.8965 473.526 95.8599C474.49 96.8233 475.031 98.1299 475.031 99.4924ZM462.553 107.565H477.233C478.012 107.565 478.759 107.874 479.309 108.425C479.86 108.975 480.169 109.722 480.169 110.501V111.968C480.169 111.968 478.701 119.307 469.893 119.307C461.084 119.307 459.616 111.968 459.616 111.968V110.501C459.616 109.722 459.926 108.975 460.476 108.425C461.027 107.874 461.774 107.565 462.553 107.565ZM447.884 84.8148C447.884 82.6738 448.734 80.6204 450.249 79.1065C451.763 77.5926 453.817 76.7421 455.958 76.7421H510.264C512.406 76.7421 514.459 77.5926 515.974 79.1065C517.488 80.6204 518.338 82.6738 518.338 84.8148V127.38C518.338 129.521 517.488 131.574 515.974 133.088C514.459 134.602 512.406 135.453 510.264 135.453H455.961C453.82 135.453 451.766 134.602 450.252 133.088C448.737 131.574 447.887 129.521 447.887 127.38L447.884 84.8148ZM455.958 81.1454C453.932 81.1454 452.288 82.7892 452.288 84.8148V127.38C452.288 129.405 453.932 131.049 455.958 131.049H510.264C512.29 131.049 513.934 129.405 513.934 127.38V84.8148C513.934 82.7892 512.29 81.1454 510.264 81.1454H455.958Z" fill="#222222"/>
<path d="M778.167 268.333C778.167 275.45 780.994 282.275 786.026 287.307C791.059 292.34 797.884 295.167 805 295.167C812.117 295.167 818.942 292.34 823.974 287.307C829.007 282.275 831.834 275.45 831.834 268.333M778.167 268.333C778.167 261.217 780.994 254.392 786.026 249.359C791.059 244.327 797.884 241.5 805 241.5C812.117 241.5 818.942 244.327 823.974 249.359C829.007 254.392 831.834 261.217 831.834 268.333M778.167 268.333H697.667M831.834 268.333H912.334M805 201.25L778.167 174.417H737.917C734.359 174.417 730.946 173.003 728.43 170.487C725.914 167.971 724.5 164.558 724.5 161V53.6667C724.5 50.1083 725.914 46.6958 728.43 44.1796C730.946 41.6635 734.359 40.25 737.917 40.25H872.084C875.642 40.25 879.055 41.6635 881.571 44.1796C884.087 46.6958 885.5 50.1083 885.5 53.6667V161C885.5 164.558 884.087 167.971 881.571 170.487C879.055 173.003 875.642 174.417 872.084 174.417H831.834L805 201.25Z" stroke="#222222" stroke-width="6.00219" stroke-linecap="round" stroke-linejoin="round"/>
<path d="M823.503 132.903L833.232 123.327L831.087 121.18L823.503 128.656L820.229 125.317L818.081 127.482L823.503 132.903ZM787.19 94.8983H823.027V91.4735H787.187L787.19 94.8983ZM825.658 140.739C821.842 140.739 818.604 139.41 815.943 136.753C813.283 134.095 811.954 130.857 811.956 127.04C811.956 123.227 813.285 119.991 815.943 117.331C818.602 114.671 821.84 113.341 825.658 113.341C829.474 113.341 832.712 114.671 835.373 117.331C838.033 119.991 839.362 123.227 839.36 127.04C839.36 130.857 838.031 134.095 835.373 136.753C832.71 139.41 829.472 140.739 825.658 140.739ZM777.702 136.133V84.2301C777.702 82.7004 778.241 81.3955 779.318 80.3156C780.396 79.2379 781.701 78.6991 783.234 78.6991H826.977C828.507 78.6991 829.812 79.2379 830.892 80.3156C831.97 81.3933 832.509 82.6981 832.509 84.2301V104.59C831.952 104.385 831.398 104.209 830.848 104.063C830.299 103.917 829.711 103.803 829.083 103.721V84.2335C829.083 83.7061 828.864 83.2221 828.426 82.7814C827.985 82.3431 827.502 82.1239 826.977 82.1239H783.234C782.709 82.1239 782.226 82.3431 781.785 82.7814C781.346 83.2221 781.127 83.705 781.127 84.2301V130.242H802.858C803.013 131.178 803.214 132.094 803.461 132.989C803.71 133.884 804.056 134.738 804.499 135.55L804.379 135.67L800.495 132.838L795.884 136.129L791.273 132.838L786.659 136.129L782.049 132.838L777.702 136.133ZM787.19 120.721H803.321C803.448 120.093 803.606 119.505 803.793 118.957C803.983 118.409 804.203 117.856 804.454 117.296H787.19V120.721ZM787.19 107.813H812.23C813.349 106.93 814.548 106.193 815.827 105.604C817.106 105.013 818.473 104.608 819.927 104.388H787.187L787.19 107.813Z" fill="#222222"/>
</svg>
