<svg width="644" height="322" viewBox="0 0 644 322" fill="none" xmlns="http://www.w3.org/2000/svg">
<path d="M134.167 268.333C134.167 275.45 136.994 282.275 142.026 287.307C147.059 292.34 153.884 295.167 161 295.167C168.117 295.167 174.942 292.34 179.974 287.307C185.007 282.275 187.834 275.45 187.834 268.333M134.167 268.333C134.167 261.217 136.994 254.392 142.026 249.359C147.059 244.327 153.884 241.5 161 241.5C168.117 241.5 174.942 244.327 179.974 249.359C185.007 254.392 187.834 261.217 187.834 268.333M134.167 268.333H53.667M187.834 268.333H268.334M161 201.25L134.167 174.417H93.917C90.3587 174.417 86.9461 173.003 84.43 170.487C81.9139 167.971 80.5003 164.558 80.5003 161V53.6667C80.5003 50.1083 81.9139 46.6958 84.43 44.1796C86.9461 41.6635 90.3587 40.25 93.917 40.25H228.084C231.642 40.25 235.055 41.6635 237.571 44.1796C240.087 46.6958 241.5 50.1083 241.5 53.6667V161C241.5 164.558 240.087 167.971 237.571 170.487C235.055 173.003 231.642 174.417 228.084 174.417H187.834L161 201.25Z" stroke="#BD1A8D" stroke-width="6.00219" stroke-linecap="round" stroke-linejoin="round"/>
<path d="M164.041 99.4925C164.041 98.9086 164.273 98.3486 164.686 97.9357C165.099 97.5228 165.659 97.2909 166.243 97.2909H182.392C182.976 97.2909 183.536 97.5228 183.949 97.9357C184.362 98.3486 184.594 98.9086 184.594 99.4925C184.594 100.076 184.362 100.636 183.949 101.049C183.536 101.462 182.976 101.694 182.392 101.694H166.243C165.659 101.694 165.099 101.462 164.686 101.049C164.273 100.636 164.041 100.076 164.041 99.4925ZM166.243 109.033C165.659 109.033 165.099 109.265 164.686 109.678C164.273 110.091 164.041 110.651 164.041 111.235C164.041 111.819 164.273 112.379 164.686 112.791C165.099 113.204 165.659 113.436 166.243 113.436H182.392C182.976 113.436 183.536 113.204 183.949 112.791C184.362 112.379 184.594 111.819 184.594 111.235C184.594 110.651 184.362 110.091 183.949 109.678C183.536 109.265 182.976 109.033 182.392 109.033H166.243ZM153.031 99.4925C153.031 100.855 152.49 102.162 151.526 103.125C150.562 104.088 149.256 104.63 147.893 104.63C146.53 104.63 145.223 104.088 144.26 103.125C143.296 102.162 142.755 100.855 142.755 99.4925C142.755 98.1301 143.296 96.8234 144.26 95.86C145.223 94.8966 146.53 94.3553 147.893 94.3553C149.256 94.3553 150.562 94.8966 151.526 95.86C152.49 96.8234 153.031 98.1301 153.031 99.4925ZM140.553 107.565H155.233C156.012 107.565 156.759 107.874 157.309 108.425C157.86 108.976 158.169 109.722 158.169 110.501V111.969C158.169 111.969 156.701 119.307 147.893 119.307C139.084 119.307 137.616 111.969 137.616 111.969V110.501C137.616 109.722 137.926 108.976 138.476 108.425C139.027 107.874 139.774 107.565 140.553 107.565ZM125.884 84.8149C125.884 82.6739 126.734 80.6205 128.249 79.1066C129.763 77.5927 131.817 76.7422 133.958 76.7422H188.264C190.406 76.7422 192.459 77.5927 193.974 79.1066C195.488 80.6205 196.338 82.6739 196.338 84.8149V127.38C196.338 129.521 195.488 131.574 193.974 133.088C192.459 134.602 190.406 135.453 188.264 135.453H133.961C131.82 135.453 129.766 134.602 128.252 133.088C126.737 131.574 125.887 129.521 125.887 127.38L125.884 84.8149ZM133.958 81.1455C131.932 81.1455 130.288 82.7894 130.288 84.8149V127.38C130.288 129.406 131.932 131.049 133.958 131.049H188.264C190.29 131.049 191.934 129.406 191.934 127.38V84.8149C191.934 82.7894 190.29 81.1455 188.264 81.1455H133.958Z" fill="#222222"/>
<path d="M456.167 268.333C456.167 275.45 458.994 282.275 464.026 287.307C469.059 292.34 475.884 295.167 483 295.167C490.117 295.167 496.942 292.34 501.974 287.307C507.007 282.275 509.834 275.45 509.834 268.333M456.167 268.333C456.167 261.217 458.994 254.392 464.026 249.359C469.059 244.327 475.884 241.5 483 241.5C490.117 241.5 496.942 244.327 501.974 249.359C507.007 254.392 509.834 261.217 509.834 268.333M456.167 268.333H375.667M509.834 268.333H590.334M483 201.25L456.167 174.417H415.917C412.359 174.417 408.946 173.003 406.43 170.487C403.914 167.971 402.5 164.558 402.5 161V53.6667C402.5 50.1083 403.914 46.6958 406.43 44.1796C408.946 41.6635 412.359 40.25 415.917 40.25H550.084C553.642 40.25 557.055 41.6635 559.571 44.1796C562.087 46.6958 563.5 50.1083 563.5 53.6667V161C563.5 164.558 562.087 167.971 559.571 170.487C557.055 173.003 553.642 174.417 550.084 174.417H509.834L483 201.25Z" stroke="#222222" stroke-width="6.00219" stroke-linecap="round" stroke-linejoin="round"/>
<path d="M485.257 65.4656C484.583 65.1605 483.86 65 483.106 65C482.351 65 481.629 65.1605 480.954 65.4656L450.719 78.2924C447.187 79.7854 444.553 83.2691 444.569 87.4751C444.65 103.4 451.201 132.538 478.867 145.782C481.548 147.066 484.663 147.066 487.345 145.782C515.011 132.538 521.562 103.4 521.642 87.4751C521.658 83.2691 519.025 79.7854 515.492 78.2924L485.257 65.4656ZM467.836 110.946C468.606 111.138 469.425 111.235 470.26 111.235C475.928 111.235 480.537 106.627 480.537 100.96V90.6859H487.634C489.577 90.6859 491.359 91.7775 492.226 93.5274L493.382 95.823H503.658C505.071 95.823 506.228 96.9789 506.228 98.3916V103.529C506.228 110.624 500.479 116.372 493.382 116.372H485.675V124.511C485.675 125.683 484.727 126.646 483.539 126.646C483.25 126.646 482.961 126.582 482.704 126.469L466.856 119.679C465.796 119.229 465.122 118.186 465.122 117.046C465.122 116.596 465.218 116.163 465.427 115.762L467.836 110.946ZM467.691 90.6859H475.398V100.96C475.398 103.802 473.102 106.097 470.26 106.097C467.418 106.097 465.122 103.802 465.122 100.96V93.2544C465.122 91.8417 466.278 90.6859 467.691 90.6859ZM488.244 98.3916C488.244 97.7104 487.973 97.057 487.491 96.5753C487.01 96.0936 486.356 95.823 485.675 95.823C484.993 95.823 484.34 96.0936 483.858 96.5753C483.376 97.057 483.106 97.7104 483.106 98.3916C483.106 99.0728 483.376 99.7262 483.858 100.208C484.34 100.69 484.993 100.96 485.675 100.96C486.356 100.96 487.01 100.69 487.491 100.208C487.973 99.7262 488.244 99.0728 488.244 98.3916Z" fill="#222222"/>
</svg>
