<svg width="966" height="322" viewBox="0 0 966 322" fill="none" xmlns="http://www.w3.org/2000/svg">
<path d="M134.167 268.333C134.167 275.45 136.994 282.275 142.026 287.307C147.059 292.34 153.884 295.167 161 295.167C168.117 295.167 174.942 292.34 179.974 287.307C185.007 282.275 187.834 275.45 187.834 268.333M134.167 268.333C134.167 261.217 136.994 254.392 142.026 249.359C147.059 244.327 153.884 241.5 161 241.5C168.117 241.5 174.942 244.327 179.974 249.359C185.007 254.392 187.834 261.217 187.834 268.333M134.167 268.333H53.667M187.834 268.333H268.334M161 201.25L134.167 174.417H93.917C90.3587 174.417 86.9461 173.003 84.43 170.487C81.9139 167.971 80.5003 164.558 80.5003 161V53.6667C80.5003 50.1083 81.9139 46.6958 84.43 44.1796C86.9461 41.6635 90.3587 40.25 93.917 40.25H228.084C231.642 40.25 235.055 41.6635 237.571 44.1796C240.087 46.6958 241.5 50.1083 241.5 53.6667V161C241.5 164.558 240.087 167.971 237.571 170.487C235.055 173.003 231.642 174.417 228.084 174.417H187.834L161 201.25Z" stroke="#BD1A8D" stroke-width="6.00219" stroke-linecap="round" stroke-linejoin="round"/>
<mask id="mask0_3621_6111" style="mask-type:luminance" maskUnits="userSpaceOnUse" x="120" y="65" width="83" height="83">
<path d="M202.211 65H120V147.195H202.211V65Z" fill="white"/>
</mask>
<g mask="url(#mask0_3621_6111)">
<path d="M175.787 73.8068H184.595C186.153 73.8068 187.646 74.4253 188.748 75.5264C189.849 76.6273 190.468 78.1207 190.468 79.6778V138.388C190.468 139.946 189.849 141.439 188.748 142.54C187.646 143.641 186.153 144.259 184.595 144.259H137.618C136.06 144.259 134.567 143.641 133.465 142.54C132.364 141.439 131.746 139.946 131.746 138.388V79.6778C131.746 78.1207 132.364 76.6273 133.465 75.5264C134.567 74.4253 136.06 73.8068 137.618 73.8068H146.426" stroke="#BD1A8D" stroke-width="5.45" stroke-linecap="round" stroke-linejoin="round"/>
<path d="M169.914 67.9347H152.297C149.054 67.9347 146.425 70.5631 146.425 73.8057V76.7411C146.425 79.9837 149.054 82.6124 152.297 82.6124H169.914C173.157 82.6124 175.786 79.9837 175.786 76.7411V73.8057C175.786 70.5631 173.157 67.9347 169.914 67.9347Z" stroke="#BD1A8D" stroke-width="5.45" stroke-linecap="round" stroke-linejoin="round"/>
</g>
<path d="M456.167 268.333C456.167 275.45 458.994 282.275 464.026 287.307C469.059 292.34 475.884 295.167 483 295.167C490.117 295.167 496.942 292.34 501.974 287.307C507.007 282.275 509.834 275.45 509.834 268.333M456.167 268.333C456.167 261.217 458.994 254.392 464.026 249.359C469.059 244.327 475.884 241.5 483 241.5C490.117 241.5 496.942 244.327 501.974 249.359C507.007 254.392 509.834 261.217 509.834 268.333M456.167 268.333H375.667M509.834 268.333H590.334M483 201.25L456.167 174.417H415.917C412.359 174.417 408.946 173.003 406.43 170.487C403.914 167.971 402.5 164.558 402.5 161V53.6667C402.5 50.1083 403.914 46.6958 406.43 44.1796C408.946 41.6635 412.359 40.25 415.917 40.25H550.084C553.642 40.25 557.055 41.6635 559.571 44.1796C562.087 46.6958 563.5 50.1083 563.5 53.6667V161C563.5 164.558 562.087 167.971 559.571 170.487C557.055 173.003 553.642 174.417 550.084 174.417H509.834L483 201.25Z" stroke="#222222" stroke-width="6.00219" stroke-linecap="round" stroke-linejoin="round"/>
<path d="M486.041 99.4925C486.041 98.9085 486.273 98.3485 486.686 97.9357C487.099 97.5228 487.659 97.2908 488.243 97.2908H504.392C504.976 97.2908 505.536 97.5228 505.949 97.9357C506.362 98.3485 506.594 98.9085 506.594 99.4925C506.594 100.076 506.362 100.636 505.949 101.049C505.536 101.462 504.976 101.694 504.392 101.694H488.243C487.659 101.694 487.099 101.462 486.686 101.049C486.273 100.636 486.041 100.076 486.041 99.4925ZM488.243 109.033C487.659 109.033 487.099 109.265 486.686 109.678C486.273 110.091 486.041 110.651 486.041 111.235C486.041 111.818 486.273 112.378 486.686 112.791C487.099 113.204 487.659 113.436 488.243 113.436H504.392C504.976 113.436 505.536 113.204 505.949 112.791C506.362 112.378 506.594 111.818 506.594 111.235C506.594 110.651 506.362 110.091 505.949 109.678C505.536 109.265 504.976 109.033 504.392 109.033H488.243ZM475.031 99.4925C475.031 100.855 474.49 102.162 473.526 103.125C472.562 104.088 471.256 104.63 469.893 104.63C468.53 104.63 467.223 104.088 466.26 103.125C465.296 102.162 464.755 100.855 464.755 99.4925C464.755 98.13 465.296 96.8233 466.26 95.8599C467.223 94.8965 468.53 94.3553 469.893 94.3553C471.256 94.3553 472.562 94.8965 473.526 95.8599C474.49 96.8233 475.031 98.13 475.031 99.4925ZM462.553 107.565H477.233C478.012 107.565 478.759 107.874 479.309 108.425C479.86 108.975 480.169 109.722 480.169 110.501V111.968C480.169 111.968 478.701 119.307 469.893 119.307C461.084 119.307 459.616 111.968 459.616 111.968V110.501C459.616 109.722 459.926 108.975 460.476 108.425C461.027 107.874 461.774 107.565 462.553 107.565ZM447.884 84.8148C447.884 82.6738 448.734 80.6205 450.249 79.1066C451.763 77.5926 453.817 76.7421 455.958 76.7421H510.264C512.406 76.7421 514.459 77.5926 515.974 79.1066C517.488 80.6205 518.338 82.6738 518.338 84.8148V127.38C518.338 129.521 517.488 131.574 515.974 133.088C514.459 134.602 512.406 135.453 510.264 135.453H455.961C453.82 135.453 451.766 134.602 450.252 133.088C448.737 131.574 447.887 129.521 447.887 127.38L447.884 84.8148ZM455.958 81.1454C453.932 81.1454 452.288 82.7893 452.288 84.8148V127.38C452.288 129.405 453.932 131.049 455.958 131.049H510.264C512.29 131.049 513.934 129.405 513.934 127.38V84.8148C513.934 82.7893 512.29 81.1454 510.264 81.1454H455.958Z" fill="#222222"/>
<path d="M778.167 268.333C778.167 275.45 780.994 282.275 786.026 287.307C791.059 292.34 797.884 295.167 805 295.167C812.117 295.167 818.942 292.34 823.974 287.307C829.007 282.275 831.834 275.45 831.834 268.333M778.167 268.333C778.167 261.217 780.994 254.392 786.026 249.359C791.059 244.327 797.884 241.5 805 241.5C812.117 241.5 818.942 244.327 823.974 249.359C829.007 254.392 831.834 261.217 831.834 268.333M778.167 268.333H697.667M831.834 268.333H912.334M805 201.25L778.167 174.417H737.917C734.359 174.417 730.946 173.003 728.43 170.487C725.914 167.971 724.5 164.558 724.5 161V53.6667C724.5 50.1083 725.914 46.6958 728.43 44.1796C730.946 41.6635 734.359 40.25 737.917 40.25H872.084C875.642 40.25 879.055 41.6635 881.571 44.1796C884.087 46.6958 885.5 50.1083 885.5 53.6667V161C885.5 164.558 884.087 167.971 881.571 170.487C879.055 173.003 875.642 174.417 872.084 174.417H831.834L805 201.25Z" stroke="#222222" stroke-width="6.00219" stroke-linecap="round" stroke-linejoin="round"/>
<path d="M805.105 93.2544C805.105 96.6606 803.752 99.9272 801.343 102.336C798.934 104.744 795.667 106.097 792.26 106.097C788.853 106.097 785.586 104.744 783.177 102.336C780.768 99.9272 779.414 96.6606 779.414 93.2544C779.414 89.8483 780.768 86.5816 783.177 84.1731C785.586 81.7646 788.853 80.4115 792.26 80.4115C795.667 80.4115 798.934 81.7646 801.343 84.1731C803.752 86.5816 805.105 89.8483 805.105 93.2544ZM823.089 106.097C825.814 106.097 828.428 105.015 830.355 103.088C832.282 101.161 833.365 98.5479 833.365 95.823C833.365 93.0981 832.282 90.4848 830.355 88.558C828.428 86.6311 825.814 85.5487 823.089 85.5487C820.363 85.5487 817.75 86.6311 815.822 88.558C813.895 90.4848 812.812 93.0981 812.812 95.823C812.812 98.5479 813.895 101.161 815.822 103.088C817.75 105.015 820.363 106.097 823.089 106.097ZM817.951 119.423V118.94C817.954 116.161 817.052 113.456 815.382 111.235H832.199C835.672 111.235 838.493 114.05 838.493 117.528C838.493 117.528 838.493 129.215 823.079 129.215C820.006 129.215 817.545 128.752 815.577 128.007C816.804 125.759 817.584 123.294 817.874 120.749C817.904 120.43 817.925 120.158 817.935 119.932L817.951 119.423ZM812.812 118.94C812.812 116.897 812 114.937 810.555 113.491C809.11 112.046 807.149 111.235 805.105 111.235H779.414C777.37 111.235 775.41 112.046 773.964 113.491C772.519 114.937 771.707 116.897 771.707 118.94V119.326C771.707 119.326 771.707 134.352 792.26 134.352C811.846 134.352 812.766 120.707 812.812 119.423V119.326V118.94Z" fill="#222222"/>
</svg>
