<svg width="527" height="114" viewBox="0 0 527 114" fill="none" xmlns="http://www.w3.org/2000/svg">
<rect y="9.5" width="155" height="95" rx="16" fill="white"/>
<g clip-path="url(#clip0_38_777)">
<path d="M83.2146 20.9287H86.6432C87.2494 20.9287 87.8308 21.1695 88.2595 21.5982C88.6881 22.0268 88.9289 22.6082 88.9289 23.2144V46.0716C88.9289 46.6778 88.6881 47.2592 88.2595 47.6878C87.8308 48.1165 87.2494 48.3573 86.6432 48.3573H68.3575C67.7513 48.3573 67.1699 48.1165 66.7412 47.6878C66.3126 47.2592 66.0718 46.6778 66.0718 46.0716V23.2144C66.0718 22.6082 66.3126 22.0268 66.7412 21.5982C67.1699 21.1695 67.7513 20.9287 68.3575 20.9287H71.7861" stroke="#BD1A8D" stroke-width="2.28571" stroke-linecap="round" stroke-linejoin="round"/>
<path d="M80.9285 18.6426H74.0714C72.809 18.6426 71.7856 19.6659 71.7856 20.9283V22.0711C71.7856 23.3335 72.809 24.3569 74.0714 24.3569H80.9285C82.1909 24.3569 83.2142 23.3335 83.2142 22.0711V20.9283C83.2142 19.6659 82.1909 18.6426 80.9285 18.6426Z" stroke="#BD1A8D" stroke-width="2.28571" stroke-linecap="round" stroke-linejoin="round"/>
<path d="M71.7856 36.9286L76.3571 40.3572L82.0714 31.2144" stroke="#BD1A8D" stroke-width="2.28571" stroke-linecap="round" stroke-linejoin="round"/>
</g>
<path d="M29.3182 59.8636V71.5H27.9091V59.8636H29.3182ZM33.3026 66.25V71.5H31.9616V62.7727H33.2571V64.1364H33.3707C33.5753 63.6932 33.8859 63.3371 34.3026 63.0682C34.7192 62.7955 35.2571 62.6591 35.9162 62.6591C36.5071 62.6591 37.0241 62.7803 37.4673 63.0227C37.9105 63.2614 38.2552 63.625 38.5014 64.1136C38.7476 64.5985 38.8707 65.2121 38.8707 65.9545V71.5H37.5298V66.0455C37.5298 65.3598 37.3518 64.8258 36.9957 64.4432C36.6397 64.0568 36.151 63.8636 35.5298 63.8636C35.1018 63.8636 34.7192 63.9564 34.3821 64.142C34.0488 64.3277 33.7855 64.5985 33.5923 64.9545C33.3991 65.3106 33.3026 65.7424 33.3026 66.25ZM41.321 74.7727V62.7727H42.6165V64.1591H42.7756C42.8741 64.0076 43.0104 63.8144 43.1847 63.5795C43.3627 63.3409 43.6165 63.1288 43.946 62.9432C44.2794 62.7538 44.7301 62.6591 45.2983 62.6591C46.0331 62.6591 46.6809 62.8428 47.2415 63.2102C47.8021 63.5777 48.2396 64.0985 48.554 64.7727C48.8684 65.447 49.0256 66.2424 49.0256 67.1591C49.0256 68.0833 48.8684 68.8845 48.554 69.5625C48.2396 70.2367 47.804 70.7595 47.2472 71.1307C46.6903 71.4981 46.0483 71.6818 45.321 71.6818C44.7604 71.6818 44.3116 71.589 43.9744 71.4034C43.6373 71.214 43.3778 71 43.196 70.7614C43.0142 70.5189 42.8741 70.3182 42.7756 70.1591H42.6619V74.7727H41.321ZM42.6392 67.1364C42.6392 67.7955 42.7358 68.3769 42.929 68.8807C43.1222 69.3807 43.4044 69.7727 43.7756 70.0568C44.1468 70.3371 44.6013 70.4773 45.1392 70.4773C45.6998 70.4773 46.1676 70.3295 46.5426 70.0341C46.9214 69.7348 47.2055 69.3333 47.3949 68.8295C47.5881 68.322 47.6847 67.7576 47.6847 67.1364C47.6847 66.5227 47.59 65.9697 47.4006 65.4773C47.215 64.9811 46.9328 64.589 46.554 64.3011C46.179 64.0095 45.7074 63.8636 45.1392 63.8636C44.5938 63.8636 44.1354 64.0019 43.7642 64.2784C43.393 64.5511 43.1127 64.9337 42.9233 65.4261C42.7339 65.9148 42.6392 66.4848 42.6392 67.1364ZM56.571 67.9318V62.7727H57.9119V71.5H56.571V70.0227H56.4801C56.2756 70.4659 55.9574 70.8428 55.5256 71.1534C55.0938 71.4602 54.5483 71.6136 53.8892 71.6136C53.3438 71.6136 52.8589 71.4943 52.4347 71.2557C52.0104 71.0133 51.6771 70.6496 51.4347 70.1648C51.1922 69.6761 51.071 69.0606 51.071 68.3182V62.7727H52.4119V68.2273C52.4119 68.8636 52.59 69.3712 52.946 69.75C53.3059 70.1288 53.7642 70.3182 54.321 70.3182C54.6544 70.3182 54.9934 70.233 55.3381 70.0625C55.6866 69.892 55.9782 69.6307 56.2131 69.2784C56.4517 68.9261 56.571 68.4773 56.571 67.9318ZM64.1634 62.7727V63.9091H59.6406V62.7727H64.1634ZM60.9588 60.6818H62.2997V69C62.2997 69.3788 62.3546 69.6629 62.4645 69.8523C62.5781 70.0379 62.7221 70.1629 62.8963 70.2273C63.0743 70.2879 63.2618 70.3182 63.4588 70.3182C63.6065 70.3182 63.7277 70.3106 63.8224 70.2955C63.9171 70.2765 63.9929 70.2614 64.0497 70.25L64.3224 71.4545C64.2315 71.4886 64.1046 71.5227 63.9418 71.5568C63.7789 71.5947 63.5724 71.6136 63.3224 71.6136C62.9437 71.6136 62.5724 71.5322 62.2088 71.3693C61.849 71.2064 61.5497 70.9583 61.3111 70.625C61.0762 70.2917 60.9588 69.8712 60.9588 69.3636V60.6818ZM74.4759 62.7727V63.9091H69.9531V62.7727H74.4759ZM71.2713 60.6818H72.6122V69C72.6122 69.3788 72.6671 69.6629 72.777 69.8523C72.8906 70.0379 73.0346 70.1629 73.2088 70.2273C73.3868 70.2879 73.5743 70.3182 73.7713 70.3182C73.919 70.3182 74.0402 70.3106 74.1349 70.2955C74.2296 70.2765 74.3054 70.2614 74.3622 70.25L74.6349 71.4545C74.544 71.4886 74.4171 71.5227 74.2543 71.5568C74.0914 71.5947 73.8849 71.6136 73.6349 71.6136C73.2562 71.6136 72.8849 71.5322 72.5213 71.3693C72.1615 71.2064 71.8622 70.9583 71.6236 70.625C71.3887 70.2917 71.2713 69.8712 71.2713 69.3636V60.6818ZM78.0213 66.25V71.5H76.6804V59.8636H78.0213V64.1364H78.1349C78.3395 63.6856 78.6463 63.3277 79.0554 63.0625C79.4683 62.7936 80.0175 62.6591 80.7031 62.6591C81.2978 62.6591 81.8187 62.7784 82.2656 63.017C82.7126 63.2519 83.0592 63.6136 83.3054 64.1023C83.5554 64.5871 83.6804 65.2045 83.6804 65.9545V71.5H82.3395V66.0455C82.3395 65.3523 82.1596 64.8163 81.7997 64.4375C81.4437 64.0549 80.9493 63.8636 80.3168 63.8636C79.8774 63.8636 79.4834 63.9564 79.1349 64.142C78.7902 64.3277 78.5175 64.5985 78.3168 64.9545C78.1198 65.3106 78.0213 65.7424 78.0213 66.25ZM89.7926 71.6818C88.9517 71.6818 88.2263 71.4962 87.6165 71.125C87.0104 70.75 86.5426 70.2273 86.2131 69.5568C85.8873 68.8826 85.7244 68.0985 85.7244 67.2045C85.7244 66.3106 85.8873 65.5227 86.2131 64.8409C86.5426 64.1553 87.0009 63.6212 87.5881 63.2386C88.179 62.8523 88.8684 62.6591 89.6562 62.6591C90.1108 62.6591 90.5597 62.7348 91.0028 62.8864C91.446 63.0379 91.8494 63.2841 92.2131 63.625C92.5767 63.9621 92.8665 64.4091 93.0824 64.9659C93.2983 65.5227 93.4062 66.2083 93.4062 67.0227V67.5909H86.679V66.4318H92.0426C92.0426 65.9394 91.9441 65.5 91.7472 65.1136C91.554 64.7273 91.2775 64.4223 90.9176 64.1989C90.5616 63.9754 90.1411 63.8636 89.6562 63.8636C89.1222 63.8636 88.66 63.9962 88.2699 64.2614C87.8835 64.5227 87.5862 64.8636 87.3778 65.2841C87.1695 65.7045 87.0653 66.1553 87.0653 66.6364V67.4091C87.0653 68.0682 87.179 68.6269 87.4062 69.0852C87.6373 69.5398 87.9574 69.8864 88.3665 70.125C88.7756 70.3598 89.2509 70.4773 89.7926 70.4773C90.1449 70.4773 90.4631 70.428 90.7472 70.3295C91.035 70.2273 91.2831 70.0758 91.4915 69.875C91.6998 69.6705 91.8608 69.4167 91.9744 69.1136L93.2699 69.4773C93.1335 69.9167 92.9044 70.303 92.5824 70.6364C92.2604 70.9659 91.8627 71.2235 91.3892 71.4091C90.9157 71.5909 90.3835 71.6818 89.7926 71.6818ZM103.241 71.6818C102.514 71.6818 101.872 71.4981 101.315 71.1307C100.759 70.7595 100.323 70.2367 100.009 69.5625C99.6941 68.8845 99.5369 68.0833 99.5369 67.1591C99.5369 66.2424 99.6941 65.447 100.009 64.7727C100.323 64.0985 100.76 63.5777 101.321 63.2102C101.882 62.8428 102.529 62.6591 103.264 62.6591C103.832 62.6591 104.281 62.7538 104.611 62.9432C104.944 63.1288 105.198 63.3409 105.372 63.5795C105.55 63.8144 105.688 64.0076 105.787 64.1591H105.901V59.8636H107.241V71.5H105.946V70.1591H105.787C105.688 70.3182 105.548 70.5189 105.366 70.7614C105.185 71 104.925 71.214 104.588 71.4034C104.251 71.589 103.802 71.6818 103.241 71.6818ZM103.423 70.4773C103.961 70.4773 104.416 70.3371 104.787 70.0568C105.158 69.7727 105.44 69.3807 105.634 68.8807C105.827 68.3769 105.923 67.7955 105.923 67.1364C105.923 66.4848 105.829 65.9148 105.639 65.4261C105.45 64.9337 105.17 64.5511 104.798 64.2784C104.427 64.0019 103.969 63.8636 103.423 63.8636C102.855 63.8636 102.382 64.0095 102.003 64.3011C101.628 64.589 101.346 64.9811 101.156 65.4773C100.971 65.9697 100.878 66.5227 100.878 67.1364C100.878 67.7576 100.973 68.322 101.162 68.8295C101.355 69.3333 101.639 69.7348 102.014 70.0341C102.393 70.3295 102.863 70.4773 103.423 70.4773ZM113.429 71.6818C112.641 71.6818 111.95 71.4943 111.355 71.1193C110.764 70.7443 110.302 70.2197 109.969 69.5455C109.639 68.8712 109.474 68.0833 109.474 67.1818C109.474 66.2727 109.639 65.4792 109.969 64.8011C110.302 64.1231 110.764 63.5966 111.355 63.2216C111.95 62.8466 112.641 62.6591 113.429 62.6591C114.217 62.6591 114.906 62.8466 115.497 63.2216C116.092 63.5966 116.554 64.1231 116.884 64.8011C117.217 65.4792 117.384 66.2727 117.384 67.1818C117.384 68.0833 117.217 68.8712 116.884 69.5455C116.554 70.2197 116.092 70.7443 115.497 71.1193C114.906 71.4943 114.217 71.6818 113.429 71.6818ZM113.429 70.4773C114.027 70.4773 114.52 70.3239 114.906 70.017C115.293 69.7102 115.579 69.3068 115.764 68.8068C115.95 68.3068 116.043 67.7652 116.043 67.1818C116.043 66.5985 115.95 66.0549 115.764 65.5511C115.579 65.0473 115.293 64.6402 114.906 64.3295C114.52 64.0189 114.027 63.8636 113.429 63.8636C112.83 63.8636 112.338 64.0189 111.952 64.3295C111.565 64.6402 111.279 65.0473 111.094 65.5511C110.908 66.0549 110.815 66.5985 110.815 67.1818C110.815 67.7652 110.908 68.3068 111.094 68.8068C111.279 69.3068 111.565 69.7102 111.952 70.017C112.338 70.3239 112.83 70.4773 113.429 70.4773ZM122.953 74.9545C122.305 74.9545 121.749 74.8712 121.283 74.7045C120.817 74.5417 120.429 74.3258 120.118 74.0568C119.811 73.7917 119.567 73.5076 119.385 73.2045L120.453 72.4545C120.574 72.6136 120.728 72.7955 120.913 73C121.099 73.2083 121.353 73.3883 121.675 73.5398C122 73.6951 122.427 73.7727 122.953 73.7727C123.658 73.7727 124.239 73.6023 124.697 73.2614C125.156 72.9205 125.385 72.3864 125.385 71.6591V69.8864H125.271C125.173 70.0455 125.033 70.2424 124.851 70.4773C124.673 70.7083 124.415 70.9148 124.078 71.0966C123.745 71.2746 123.294 71.3636 122.726 71.3636C122.021 71.3636 121.389 71.197 120.828 70.8636C120.271 70.5303 119.83 70.0455 119.504 69.4091C119.182 68.7727 119.021 68 119.021 67.0909C119.021 66.197 119.179 65.4186 119.493 64.7557C119.807 64.089 120.245 63.5739 120.805 63.2102C121.366 62.8428 122.014 62.6591 122.749 62.6591C123.317 62.6591 123.768 62.7538 124.101 62.9432C124.438 63.1288 124.696 63.3409 124.874 63.5795C125.055 63.8144 125.196 64.0076 125.294 64.1591H125.43V62.7727H126.726V71.75C126.726 72.5 126.555 73.1098 126.214 73.5795C125.877 74.053 125.423 74.3996 124.851 74.6193C124.283 74.8428 123.65 74.9545 122.953 74.9545ZM122.908 70.1591C123.446 70.1591 123.9 70.036 124.271 69.7898C124.643 69.5436 124.925 69.1894 125.118 68.7273C125.311 68.2652 125.408 67.7121 125.408 67.0682C125.408 66.4394 125.313 65.8845 125.124 65.4034C124.934 64.9223 124.654 64.5455 124.283 64.2727C123.911 64 123.453 63.8636 122.908 63.8636C122.339 63.8636 121.866 64.0076 121.487 64.2955C121.112 64.5833 120.83 64.9697 120.641 65.4545C120.455 65.9394 120.362 66.4773 120.362 67.0682C120.362 67.6742 120.457 68.2102 120.646 68.6761C120.839 69.1383 121.124 69.5019 121.499 69.767C121.877 70.0284 122.347 70.1591 122.908 70.1591Z" fill="#BD1A8D"/>
<g clip-path="url(#clip1_38_777)">
<path fill-rule="evenodd" clip-rule="evenodd" d="M70.5 89.5C70.5 87.6435 71.2375 85.863 72.5503 84.5503C73.863 83.2375 75.6435 82.5 77.5 82.5C79.3565 82.5 81.137 83.2375 82.4497 84.5503C83.7625 85.863 84.5 87.6435 84.5 89.5C84.5 91.3565 83.7625 93.137 82.4497 94.4497C81.137 95.7625 79.3565 96.5 77.5 96.5C75.6435 96.5 73.863 95.7625 72.5503 94.4497C71.2375 93.137 70.5 91.3565 70.5 89.5ZM77.1005 92.496L81.1307 87.4579L80.4027 86.8755L76.9661 91.1697L74.532 89.1416L73.9347 89.8584L77.1005 92.4969V92.496Z" fill="#BD1A8D"/>
</g>
<rect x="155" y="54.5" width="25" height="5" fill="#BD1A8D"/>
<rect x="180" width="167" height="114" rx="16" fill="#BD1A8D"/>
<path d="M261.5 47.3332V48.6665C261.5 49.2221 261.695 49.6945 262.084 50.0838C262.473 50.4732 262.945 50.6674 263.5 50.6665C264.056 50.6665 264.528 50.4718 264.917 50.0825C265.307 49.6932 265.501 49.2212 265.5 48.6665V47.3332H266.833C267.389 47.3332 267.861 47.1385 268.251 46.7492C268.64 46.3598 268.834 45.8878 268.833 45.3332C268.833 44.7776 268.639 44.3052 268.249 43.9158C267.86 43.5265 267.388 43.3323 266.833 43.3332H265.5V41.9998C265.5 41.4443 265.305 40.9718 264.916 40.5825C264.527 40.1932 264.055 39.9989 263.5 39.9998C262.945 39.9998 262.472 40.1945 262.083 40.5838C261.693 40.9732 261.499 41.4452 261.5 41.9998V43.3332H260.167C259.611 43.3332 259.139 43.5278 258.749 43.9172C258.36 44.3065 258.166 44.7785 258.167 45.3332C258.167 45.8887 258.361 46.3612 258.751 46.7505C259.14 47.1398 259.612 47.3341 260.167 47.3332H261.5ZM255.5 55.9998C254.767 55.9998 254.139 55.7385 253.616 55.2158C253.093 54.6932 252.833 54.0656 252.833 53.3332V41.3332C252.833 40.9109 252.928 40.5109 253.117 40.1332C253.307 39.7554 253.568 39.4443 253.9 39.1998L261.9 33.1998C262.367 32.8443 262.9 32.6665 263.5 32.6665C264.1 32.6665 264.633 32.8443 265.1 33.1998L273.1 39.1998C273.433 39.4443 273.695 39.7554 273.884 40.1332C274.073 40.5109 274.168 40.9109 274.167 41.3332V53.3332C274.167 54.0665 273.905 54.6945 273.383 55.2172C272.86 55.7398 272.233 56.0007 271.5 55.9998H255.5ZM255.5 53.3332H271.5V41.3332L263.5 35.3332L255.5 41.3332V53.3332Z" fill="white"/>
<path d="M205.409 82V70.3636H209.341C210.25 70.3636 210.996 70.5189 211.58 70.8295C212.163 71.1364 212.595 71.5587 212.875 72.0966C213.155 72.6345 213.295 73.2462 213.295 73.9318C213.295 74.6174 213.155 75.2254 212.875 75.7557C212.595 76.286 212.165 76.7027 211.585 77.0057C211.006 77.3049 210.265 77.4545 209.364 77.4545H206.182V76.1818H209.318C209.939 76.1818 210.439 76.0909 210.818 75.9091C211.201 75.7273 211.477 75.4697 211.648 75.1364C211.822 74.7992 211.909 74.3977 211.909 73.9318C211.909 73.4659 211.822 73.0587 211.648 72.7102C211.473 72.3617 211.195 72.0928 210.812 71.9034C210.43 71.7102 209.924 71.6136 209.295 71.6136H206.818V82H205.409ZM210.886 76.7727L213.75 82H212.114L209.295 76.7727H210.886ZM219.027 82.1818C218.186 82.1818 217.461 81.9962 216.851 81.625C216.245 81.25 215.777 80.7273 215.447 80.0568C215.122 79.3826 214.959 78.5985 214.959 77.7045C214.959 76.8106 215.122 76.0227 215.447 75.3409C215.777 74.6553 216.235 74.1212 216.822 73.7386C217.413 73.3523 218.103 73.1591 218.891 73.1591C219.345 73.1591 219.794 73.2348 220.237 73.3864C220.68 73.5379 221.084 73.7841 221.447 74.125C221.811 74.4621 222.101 74.9091 222.317 75.4659C222.533 76.0227 222.641 76.7083 222.641 77.5227V78.0909H215.913V76.9318H221.277C221.277 76.4394 221.179 76 220.982 75.6136C220.788 75.2273 220.512 74.9223 220.152 74.6989C219.796 74.4754 219.375 74.3636 218.891 74.3636C218.357 74.3636 217.894 74.4962 217.504 74.7614C217.118 75.0227 216.821 75.3636 216.612 75.7841C216.404 76.2045 216.3 76.6553 216.3 77.1364V77.9091C216.3 78.5682 216.413 79.1269 216.641 79.5852C216.872 80.0398 217.192 80.3864 217.601 80.625C218.01 80.8598 218.485 80.9773 219.027 80.9773C219.379 80.9773 219.697 80.928 219.982 80.8295C220.269 80.7273 220.518 80.5758 220.726 80.375C220.934 80.1705 221.095 79.9167 221.209 79.6136L222.504 79.9773C222.368 80.4167 222.139 80.803 221.817 81.1364C221.495 81.4659 221.097 81.7235 220.624 81.9091C220.15 82.0909 219.618 82.1818 219.027 82.1818ZM230.862 75.2273L229.658 75.5682C229.582 75.3674 229.47 75.1723 229.322 74.983C229.179 74.7898 228.982 74.6307 228.732 74.5057C228.482 74.3807 228.161 74.3182 227.771 74.3182C227.237 74.3182 226.792 74.4413 226.436 74.6875C226.084 74.9299 225.908 75.2386 225.908 75.6136C225.908 75.947 226.029 76.2102 226.271 76.4034C226.514 76.5966 226.893 76.7576 227.408 76.8864L228.703 77.2045C229.483 77.3939 230.065 77.6837 230.447 78.0739C230.83 78.4602 231.021 78.9583 231.021 79.5682C231.021 80.0682 230.877 80.5152 230.589 80.9091C230.305 81.303 229.908 81.6136 229.396 81.8409C228.885 82.0682 228.29 82.1818 227.612 82.1818C226.722 82.1818 225.985 81.9886 225.402 81.6023C224.819 81.2159 224.449 80.6515 224.294 79.9091L225.567 79.5909C225.688 80.0606 225.917 80.4129 226.254 80.6477C226.595 80.8826 227.04 81 227.589 81C228.214 81 228.711 80.8674 229.078 80.6023C229.449 80.3333 229.635 80.0114 229.635 79.6364C229.635 79.3333 229.529 79.0795 229.317 78.875C229.105 78.6667 228.779 78.5114 228.339 78.4091L226.885 78.0682C226.086 77.8788 225.499 77.5852 225.124 77.1875C224.752 76.786 224.567 76.2841 224.567 75.6818C224.567 75.1894 224.705 74.7538 224.982 74.375C225.262 73.9962 225.643 73.6989 226.124 73.483C226.608 73.267 227.158 73.1591 227.771 73.1591C228.635 73.1591 229.313 73.3485 229.805 73.7273C230.302 74.1061 230.654 74.6061 230.862 75.2273ZM236.585 82.1818C235.767 82.1818 235.063 81.9886 234.472 81.6023C233.881 81.2159 233.426 80.6837 233.108 80.0057C232.79 79.3277 232.631 78.553 232.631 77.6818C232.631 76.7955 232.794 76.0133 233.119 75.3352C233.449 74.6534 233.907 74.1212 234.494 73.7386C235.085 73.3523 235.775 73.1591 236.562 73.1591C237.176 73.1591 237.729 73.2727 238.222 73.5C238.714 73.7273 239.117 74.0455 239.432 74.4545C239.746 74.8636 239.941 75.3409 240.017 75.8864H238.676C238.574 75.4886 238.347 75.1364 237.994 74.8295C237.646 74.5189 237.176 74.3636 236.585 74.3636C236.063 74.3636 235.604 74.5 235.21 74.7727C234.82 75.0417 234.515 75.4223 234.295 75.9148C234.08 76.4034 233.972 76.9773 233.972 77.6364C233.972 78.3106 234.078 78.8977 234.29 79.3977C234.506 79.8977 234.809 80.286 235.199 80.5625C235.593 80.839 236.055 80.9773 236.585 80.9773C236.934 80.9773 237.25 80.9167 237.534 80.7955C237.818 80.6742 238.059 80.5 238.256 80.2727C238.453 80.0455 238.593 79.7727 238.676 79.4545H240.017C239.941 79.9697 239.754 80.4337 239.455 80.8466C239.159 81.2557 238.767 81.5814 238.278 81.8239C237.794 82.0625 237.229 82.1818 236.585 82.1818ZM247.477 78.4318V73.2727H248.818V82H247.477V80.5227H247.386C247.182 80.9659 246.864 81.3428 246.432 81.6534C246 81.9602 245.455 82.1136 244.795 82.1136C244.25 82.1136 243.765 81.9943 243.341 81.7557C242.917 81.5133 242.583 81.1496 242.341 80.6648C242.098 80.1761 241.977 79.5606 241.977 78.8182V73.2727H243.318V78.7273C243.318 79.3636 243.496 79.8712 243.852 80.25C244.212 80.6288 244.67 80.8182 245.227 80.8182C245.561 80.8182 245.9 80.733 246.244 80.5625C246.593 80.392 246.884 80.1307 247.119 79.7784C247.358 79.4261 247.477 78.9773 247.477 78.4318ZM254.933 82.1818C254.092 82.1818 253.367 81.9962 252.757 81.625C252.151 81.25 251.683 80.7273 251.354 80.0568C251.028 79.3826 250.865 78.5985 250.865 77.7045C250.865 76.8106 251.028 76.0227 251.354 75.3409C251.683 74.6553 252.142 74.1212 252.729 73.7386C253.32 73.3523 254.009 73.1591 254.797 73.1591C255.251 73.1591 255.7 73.2348 256.143 73.3864C256.587 73.5379 256.99 73.7841 257.354 74.125C257.717 74.4621 258.007 74.9091 258.223 75.4659C258.439 76.0227 258.547 76.7083 258.547 77.5227V78.0909H251.82V76.9318H257.183C257.183 76.4394 257.085 76 256.888 75.6136C256.695 75.2273 256.418 74.9223 256.058 74.6989C255.702 74.4754 255.282 74.3636 254.797 74.3636C254.263 74.3636 253.801 74.4962 253.411 74.7614C253.024 75.0227 252.727 75.3636 252.518 75.7841C252.31 76.2045 252.206 76.6553 252.206 77.1364V77.9091C252.206 78.5682 252.32 79.1269 252.547 79.5852C252.778 80.0398 253.098 80.3864 253.507 80.625C253.916 80.8598 254.392 80.9773 254.933 80.9773C255.286 80.9773 255.604 80.928 255.888 80.8295C256.176 80.7273 256.424 80.5758 256.632 80.375C256.84 80.1705 257.001 79.9167 257.115 79.6136L258.411 79.9773C258.274 80.4167 258.045 80.803 257.723 81.1364C257.401 81.4659 257.003 81.7235 256.53 81.9091C256.056 82.0909 255.524 82.1818 254.933 82.1818ZM268.882 73.2727V74.4091H264.359V73.2727H268.882ZM265.678 71.1818H267.018V79.5C267.018 79.8788 267.073 80.1629 267.183 80.3523C267.297 80.5379 267.441 80.6629 267.615 80.7273C267.793 80.7879 267.981 80.8182 268.178 80.8182C268.325 80.8182 268.446 80.8106 268.541 80.7955C268.636 80.7765 268.712 80.7614 268.768 80.75L269.041 81.9545C268.95 81.9886 268.823 82.0227 268.661 82.0568C268.498 82.0947 268.291 82.1136 268.041 82.1136C267.662 82.1136 267.291 82.0322 266.928 81.8693C266.568 81.7064 266.268 81.4583 266.03 81.125C265.795 80.7917 265.678 80.3712 265.678 79.8636V71.1818ZM272.428 76.75V82H271.087V70.3636H272.428V74.6364H272.541C272.746 74.1856 273.053 73.8277 273.462 73.5625C273.875 73.2936 274.424 73.1591 275.109 73.1591C275.704 73.1591 276.225 73.2784 276.672 73.517C277.119 73.7519 277.465 74.1136 277.712 74.6023C277.962 75.0871 278.087 75.7045 278.087 76.4545V82H276.746V76.5455C276.746 75.8523 276.566 75.3163 276.206 74.9375C275.85 74.5549 275.356 74.3636 274.723 74.3636C274.284 74.3636 273.89 74.4564 273.541 74.642C273.196 74.8277 272.924 75.0985 272.723 75.4545C272.526 75.8106 272.428 76.2424 272.428 76.75ZM284.199 82.1818C283.358 82.1818 282.633 81.9962 282.023 81.625C281.417 81.25 280.949 80.7273 280.619 80.0568C280.294 79.3826 280.131 78.5985 280.131 77.7045C280.131 76.8106 280.294 76.0227 280.619 75.3409C280.949 74.6553 281.407 74.1212 281.994 73.7386C282.585 73.3523 283.275 73.1591 284.062 73.1591C284.517 73.1591 284.966 73.2348 285.409 73.3864C285.852 73.5379 286.256 73.7841 286.619 74.125C286.983 74.4621 287.273 74.9091 287.489 75.4659C287.705 76.0227 287.812 76.7083 287.812 77.5227V78.0909H281.085V76.9318H286.449C286.449 76.4394 286.35 76 286.153 75.6136C285.96 75.2273 285.684 74.9223 285.324 74.6989C284.968 74.4754 284.547 74.3636 284.062 74.3636C283.528 74.3636 283.066 74.4962 282.676 74.7614C282.29 75.0227 281.992 75.3636 281.784 75.7841C281.576 76.2045 281.472 76.6553 281.472 77.1364V77.9091C281.472 78.5682 281.585 79.1269 281.812 79.5852C282.044 80.0398 282.364 80.3864 282.773 80.625C283.182 80.8598 283.657 80.9773 284.199 80.9773C284.551 80.9773 284.869 80.928 285.153 80.8295C285.441 80.7273 285.689 80.5758 285.898 80.375C286.106 80.1705 286.267 79.9167 286.381 79.6136L287.676 79.9773C287.54 80.4167 287.311 80.803 286.989 81.1364C286.667 81.4659 286.269 81.7235 285.795 81.9091C285.322 82.0909 284.79 82.1818 284.199 82.1818ZM297.648 82.1818C296.92 82.1818 296.278 81.9981 295.722 81.6307C295.165 81.2595 294.729 80.7367 294.415 80.0625C294.1 79.3845 293.943 78.5833 293.943 77.6591C293.943 76.7424 294.1 75.947 294.415 75.2727C294.729 74.5985 295.167 74.0777 295.727 73.7102C296.288 73.3428 296.936 73.1591 297.67 73.1591C298.239 73.1591 298.688 73.2538 299.017 73.4432C299.35 73.6288 299.604 73.8409 299.778 74.0795C299.956 74.3144 300.095 74.5076 300.193 74.6591H300.307V70.3636H301.648V82H300.352V80.6591H300.193C300.095 80.8182 299.955 81.0189 299.773 81.2614C299.591 81.5 299.331 81.714 298.994 81.9034C298.657 82.089 298.208 82.1818 297.648 82.1818ZM297.83 80.9773C298.367 80.9773 298.822 80.8371 299.193 80.5568C299.564 80.2727 299.847 79.8807 300.04 79.3807C300.233 78.8769 300.33 78.2955 300.33 77.6364C300.33 76.9848 300.235 76.4148 300.045 75.9261C299.856 75.4337 299.576 75.0511 299.205 74.7784C298.833 74.5019 298.375 74.3636 297.83 74.3636C297.261 74.3636 296.788 74.5095 296.409 74.8011C296.034 75.089 295.752 75.4811 295.562 75.9773C295.377 76.4697 295.284 77.0227 295.284 77.6364C295.284 78.2576 295.379 78.822 295.568 79.3295C295.761 79.8333 296.045 80.2348 296.42 80.5341C296.799 80.8295 297.269 80.9773 297.83 80.9773ZM307.835 82.1818C307.047 82.1818 306.356 81.9943 305.761 81.6193C305.17 81.2443 304.708 80.7197 304.375 80.0455C304.045 79.3712 303.881 78.5833 303.881 77.6818C303.881 76.7727 304.045 75.9792 304.375 75.3011C304.708 74.6231 305.17 74.0966 305.761 73.7216C306.356 73.3466 307.047 73.1591 307.835 73.1591C308.623 73.1591 309.313 73.3466 309.903 73.7216C310.498 74.0966 310.96 74.6231 311.29 75.3011C311.623 75.9792 311.79 76.7727 311.79 77.6818C311.79 78.5833 311.623 79.3712 311.29 80.0455C310.96 80.7197 310.498 81.2443 309.903 81.6193C309.313 81.9943 308.623 82.1818 307.835 82.1818ZM307.835 80.9773C308.434 80.9773 308.926 80.8239 309.312 80.517C309.699 80.2102 309.985 79.8068 310.17 79.3068C310.356 78.8068 310.449 78.2652 310.449 77.6818C310.449 77.0985 310.356 76.5549 310.17 76.0511C309.985 75.5473 309.699 75.1402 309.312 74.8295C308.926 74.5189 308.434 74.3636 307.835 74.3636C307.237 74.3636 306.744 74.5189 306.358 74.8295C305.972 75.1402 305.686 75.5473 305.5 76.0511C305.314 76.5549 305.222 77.0985 305.222 77.6818C305.222 78.2652 305.314 78.8068 305.5 79.3068C305.686 79.8068 305.972 80.2102 306.358 80.517C306.744 80.8239 307.237 80.9773 307.835 80.9773ZM317.359 85.4545C316.712 85.4545 316.155 85.3712 315.689 85.2045C315.223 85.0417 314.835 84.8258 314.524 84.5568C314.217 84.2917 313.973 84.0076 313.791 83.7045L314.859 82.9545C314.981 83.1136 315.134 83.2955 315.32 83.5C315.505 83.7083 315.759 83.8883 316.081 84.0398C316.407 84.1951 316.833 84.2727 317.359 84.2727C318.064 84.2727 318.645 84.1023 319.104 83.7614C319.562 83.4205 319.791 82.8864 319.791 82.1591V80.3864H319.678C319.579 80.5455 319.439 80.7424 319.257 80.9773C319.079 81.2083 318.821 81.4148 318.484 81.5966C318.151 81.7746 317.7 81.8636 317.132 81.8636C316.428 81.8636 315.795 81.697 315.234 81.3636C314.678 81.0303 314.236 80.5455 313.911 79.9091C313.589 79.2727 313.428 78.5 313.428 77.5909C313.428 76.697 313.585 75.9186 313.899 75.2557C314.214 74.589 314.651 74.0739 315.212 73.7102C315.772 73.3428 316.42 73.1591 317.155 73.1591C317.723 73.1591 318.174 73.2538 318.507 73.4432C318.844 73.6288 319.102 73.8409 319.28 74.0795C319.462 74.3144 319.602 74.5076 319.7 74.6591H319.837V73.2727H321.132V82.25C321.132 83 320.962 83.6098 320.621 84.0795C320.284 84.553 319.829 84.8996 319.257 85.1193C318.689 85.3428 318.056 85.4545 317.359 85.4545ZM317.314 80.6591C317.852 80.6591 318.306 80.536 318.678 80.2898C319.049 80.0436 319.331 79.6894 319.524 79.2273C319.717 78.7652 319.814 78.2121 319.814 77.5682C319.814 76.9394 319.719 76.3845 319.53 75.9034C319.34 75.4223 319.06 75.0455 318.689 74.7727C318.318 74.5 317.859 74.3636 317.314 74.3636C316.746 74.3636 316.272 74.5076 315.893 74.7955C315.518 75.0833 315.236 75.4697 315.047 75.9545C314.861 76.4394 314.768 76.9773 314.768 77.5682C314.768 78.1742 314.863 78.7102 315.053 79.1761C315.246 79.6383 315.53 80.0019 315.905 80.267C316.284 80.5284 316.753 80.6591 317.314 80.6591Z" fill="white"/>
<rect x="347" y="54.5" width="25" height="5" fill="#9D9A9C"/>
<rect x="372" y="12" width="155" height="90" rx="16" fill="white"/>
<path d="M458.081 38.0831L454.408 32.7773C454.136 32.3849 453.774 32.063 453.353 31.8383C452.931 31.6136 452.462 31.4926 451.985 31.4853L445.014 31.3853H445C441.401 31.3853 438.64 31.9872 436.862 34.9249C435.206 37.6594 434.5 42.3174 434.5 50.4999V51.4999H436.785L435.314 58.9999H437.352L438.823 51.4999H439.5C441.133 51.5145 442.707 50.8861 443.88 49.7504C444.942 48.7351 445.707 47.3459 446.094 45.7333L446.098 45.7188L447.813 37.4999H445.77L444.146 45.2804C443.652 47.3229 442.173 49.4999 439.5 49.4999H436.504C436.558 42.4208 437.203 38.2238 438.573 35.9603C439.723 34.0603 441.404 33.3859 444.993 33.3849L451.956 33.4849C452.115 33.4874 452.272 33.5277 452.412 33.6026C452.553 33.6775 452.673 33.7848 452.764 33.9156L456.919 39.9168L462.5 40.8471V41.907L461.569 46.8708C461.295 48.3359 460.825 49.0739 458.899 49.3052L451.005 50.6558L450.953 58.9999H452.953L452.995 52.3441L459.163 51.2879C460.561 51.1161 461.592 50.6657 462.315 49.9114C462.933 49.2666 463.309 48.4427 463.535 47.2394L464.5 42.0929V39.1528L458.081 38.0831Z" fill="#9D9A9C"/>
<path d="M381.737 82V70.3636H385.669C386.578 70.3636 387.324 70.5189 387.908 70.8295C388.491 71.1364 388.923 71.5587 389.203 72.0966C389.483 72.6345 389.624 73.2462 389.624 73.9318C389.624 74.6174 389.483 75.2254 389.203 75.7557C388.923 76.286 388.493 76.7027 387.913 77.0057C387.334 77.3049 386.593 77.4545 385.692 77.4545H382.51V76.1818H385.646C386.268 76.1818 386.768 76.0909 387.146 75.9091C387.529 75.7273 387.805 75.4697 387.976 75.1364C388.15 74.7992 388.237 74.3977 388.237 73.9318C388.237 73.4659 388.15 73.0587 387.976 72.7102C387.802 72.3617 387.523 72.0928 387.141 71.9034C386.758 71.7102 386.252 71.6136 385.624 71.6136H383.146V82H381.737ZM387.214 76.7727L390.078 82H388.442L385.624 76.7727H387.214ZM395.355 82.1818C394.514 82.1818 393.789 81.9962 393.179 81.625C392.573 81.25 392.105 80.7273 391.776 80.0568C391.45 79.3826 391.287 78.5985 391.287 77.7045C391.287 76.8106 391.45 76.0227 391.776 75.3409C392.105 74.6553 392.563 74.1212 393.151 73.7386C393.741 73.3523 394.431 73.1591 395.219 73.1591C395.673 73.1591 396.122 73.2348 396.565 73.3864C397.009 73.5379 397.412 73.7841 397.776 74.125C398.139 74.4621 398.429 74.9091 398.645 75.4659C398.861 76.0227 398.969 76.7083 398.969 77.5227V78.0909H392.241V76.9318H397.605C397.605 76.4394 397.507 76 397.31 75.6136C397.116 75.2273 396.84 74.9223 396.48 74.6989C396.124 74.4754 395.704 74.3636 395.219 74.3636C394.685 74.3636 394.223 74.4962 393.832 74.7614C393.446 75.0227 393.149 75.3636 392.94 75.7841C392.732 76.2045 392.628 76.6553 392.628 77.1364V77.9091C392.628 78.5682 392.741 79.1269 392.969 79.5852C393.2 80.0398 393.52 80.3864 393.929 80.625C394.338 80.8598 394.813 80.9773 395.355 80.9773C395.707 80.9773 396.026 80.928 396.31 80.8295C396.598 80.7273 396.846 80.5758 397.054 80.375C397.262 80.1705 397.423 79.9167 397.537 79.6136L398.832 79.9773C398.696 80.4167 398.467 80.803 398.145 81.1364C397.823 81.4659 397.425 81.7235 396.952 81.9091C396.478 82.0909 395.946 82.1818 395.355 82.1818ZM403.577 82.2045C403.024 82.2045 402.522 82.1004 402.071 81.892C401.62 81.6799 401.262 81.375 400.997 80.9773C400.732 80.5758 400.599 80.0909 400.599 79.5227C400.599 79.0227 400.698 78.6174 400.895 78.3068C401.092 77.9924 401.355 77.7462 401.685 77.5682C402.014 77.3902 402.378 77.2576 402.776 77.1705C403.177 77.0795 403.58 77.0076 403.986 76.9545C404.516 76.8864 404.946 76.8352 405.276 76.8011C405.609 76.7633 405.851 76.7008 406.003 76.6136C406.158 76.5265 406.236 76.375 406.236 76.1591V76.1136C406.236 75.553 406.082 75.1174 405.776 74.8068C405.473 74.4962 405.012 74.3409 404.395 74.3409C403.755 74.3409 403.253 74.4811 402.889 74.7614C402.526 75.0417 402.27 75.3409 402.122 75.6591L400.849 75.2045C401.077 74.6742 401.38 74.2614 401.759 73.9659C402.141 73.6667 402.558 73.4583 403.009 73.3409C403.463 73.2197 403.91 73.1591 404.349 73.1591C404.63 73.1591 404.952 73.1932 405.315 73.2614C405.683 73.3258 406.037 73.4602 406.378 73.6648C406.723 73.8693 407.009 74.178 407.236 74.5909C407.463 75.0038 407.577 75.5568 407.577 76.25V82H406.236V80.8182H406.168C406.077 81.0076 405.925 81.2102 405.713 81.4261C405.501 81.642 405.219 81.8258 404.866 81.9773C404.514 82.1288 404.084 82.2045 403.577 82.2045ZM403.781 81C404.312 81 404.759 80.8958 405.122 80.6875C405.49 80.4792 405.766 80.2102 405.952 79.8807C406.141 79.5511 406.236 79.2045 406.236 78.8409V77.6136C406.179 77.6818 406.054 77.7443 405.861 77.8011C405.671 77.8542 405.452 77.9015 405.202 77.9432C404.955 77.9811 404.715 78.0152 404.48 78.0455C404.249 78.072 404.062 78.0947 403.918 78.1136C403.569 78.1591 403.243 78.233 402.94 78.3352C402.641 78.4337 402.399 78.5833 402.213 78.7841C402.031 78.9811 401.94 79.25 401.94 79.5909C401.94 80.0568 402.113 80.4091 402.457 80.6477C402.806 80.8826 403.247 81 403.781 81ZM413.32 82.1818C412.592 82.1818 411.95 81.9981 411.393 81.6307C410.837 81.2595 410.401 80.7367 410.087 80.0625C409.772 79.3845 409.615 78.5833 409.615 77.6591C409.615 76.7424 409.772 75.947 410.087 75.2727C410.401 74.5985 410.839 74.0777 411.399 73.7102C411.96 73.3428 412.607 73.1591 413.342 73.1591C413.911 73.1591 414.359 73.2538 414.689 73.4432C415.022 73.6288 415.276 73.8409 415.45 74.0795C415.628 74.3144 415.767 74.5076 415.865 74.6591H415.979V70.3636H417.32V82H416.024V80.6591H415.865C415.767 80.8182 415.626 81.0189 415.445 81.2614C415.263 81.5 415.003 81.714 414.666 81.9034C414.329 82.089 413.88 82.1818 413.32 82.1818ZM413.501 80.9773C414.039 80.9773 414.494 80.8371 414.865 80.5568C415.236 80.2727 415.518 79.8807 415.712 79.3807C415.905 78.8769 416.001 78.2955 416.001 77.6364C416.001 76.9848 415.907 76.4148 415.717 75.9261C415.528 75.4337 415.248 75.0511 414.876 74.7784C414.505 74.5019 414.047 74.3636 413.501 74.3636C412.933 74.3636 412.46 74.5095 412.081 74.8011C411.706 75.089 411.424 75.4811 411.234 75.9773C411.049 76.4697 410.956 77.0227 410.956 77.6364C410.956 78.2576 411.051 78.822 411.24 79.3295C411.433 79.8333 411.717 80.2348 412.092 80.5341C412.471 80.8295 412.941 80.9773 413.501 80.9773ZM420.825 85.2727C420.598 85.2727 420.395 85.2538 420.217 85.2159C420.039 85.1818 419.916 85.1477 419.848 85.1136L420.189 83.9318C420.515 84.0152 420.803 84.0455 421.053 84.0227C421.303 84 421.524 83.8883 421.717 83.6875C421.914 83.4905 422.094 83.1705 422.257 82.7273L422.507 82.0455L419.28 73.2727H420.734L423.143 80.2273H423.234L425.643 73.2727H427.098L423.393 83.2727C423.227 83.7235 423.02 84.0966 422.774 84.392C422.528 84.6913 422.242 84.9129 421.916 85.0568C421.594 85.2008 421.231 85.2727 420.825 85.2727ZM437.163 73.2727V74.4091H432.641V73.2727H437.163ZM433.959 71.1818H435.3V79.5C435.3 79.8788 435.355 80.1629 435.464 80.3523C435.578 80.5379 435.722 80.6629 435.896 80.7273C436.074 80.7879 436.262 80.8182 436.459 80.8182C436.607 80.8182 436.728 80.8106 436.822 80.7955C436.917 80.7765 436.993 80.7614 437.05 80.75L437.322 81.9545C437.232 81.9886 437.105 82.0227 436.942 82.0568C436.779 82.0947 436.572 82.1136 436.322 82.1136C435.944 82.1136 435.572 82.0322 435.209 81.8693C434.849 81.7064 434.55 81.4583 434.311 81.125C434.076 80.7917 433.959 80.3712 433.959 79.8636V71.1818ZM442.632 82.1818C441.844 82.1818 441.153 81.9943 440.558 81.6193C439.967 81.2443 439.505 80.7197 439.172 80.0455C438.842 79.3712 438.678 78.5833 438.678 77.6818C438.678 76.7727 438.842 75.9792 439.172 75.3011C439.505 74.6231 439.967 74.0966 440.558 73.7216C441.153 73.3466 441.844 73.1591 442.632 73.1591C443.42 73.1591 444.109 73.3466 444.7 73.7216C445.295 74.0966 445.757 74.6231 446.087 75.3011C446.42 75.9792 446.587 76.7727 446.587 77.6818C446.587 78.5833 446.42 79.3712 446.087 80.0455C445.757 80.7197 445.295 81.2443 444.7 81.6193C444.109 81.9943 443.42 82.1818 442.632 82.1818ZM442.632 80.9773C443.231 80.9773 443.723 80.8239 444.109 80.517C444.496 80.2102 444.782 79.8068 444.967 79.3068C445.153 78.8068 445.246 78.2652 445.246 77.6818C445.246 77.0985 445.153 76.5549 444.967 76.0511C444.782 75.5473 444.496 75.1402 444.109 74.8295C443.723 74.5189 443.231 74.3636 442.632 74.3636C442.034 74.3636 441.541 74.5189 441.155 74.8295C440.768 75.1402 440.482 75.5473 440.297 76.0511C440.111 76.5549 440.018 77.0985 440.018 77.6818C440.018 78.2652 440.111 78.8068 440.297 79.3068C440.482 79.8068 440.768 80.2102 441.155 80.517C441.541 80.8239 442.034 80.9773 442.632 80.9773ZM455.702 82.2045C455.149 82.2045 454.647 82.1004 454.196 81.892C453.745 81.6799 453.387 81.375 453.122 80.9773C452.857 80.5758 452.724 80.0909 452.724 79.5227C452.724 79.0227 452.823 78.6174 453.02 78.3068C453.217 77.9924 453.48 77.7462 453.81 77.5682C454.139 77.3902 454.503 77.2576 454.901 77.1705C455.302 77.0795 455.705 77.0076 456.111 76.9545C456.641 76.8864 457.071 76.8352 457.401 76.8011C457.734 76.7633 457.976 76.7008 458.128 76.6136C458.283 76.5265 458.361 76.375 458.361 76.1591V76.1136C458.361 75.553 458.207 75.1174 457.901 74.8068C457.598 74.4962 457.137 74.3409 456.52 74.3409C455.88 74.3409 455.378 74.4811 455.014 74.7614C454.651 75.0417 454.395 75.3409 454.247 75.6591L452.974 75.2045C453.202 74.6742 453.505 74.2614 453.884 73.9659C454.266 73.6667 454.683 73.4583 455.134 73.3409C455.588 73.2197 456.035 73.1591 456.474 73.1591C456.755 73.1591 457.077 73.1932 457.44 73.2614C457.808 73.3258 458.162 73.4602 458.503 73.6648C458.848 73.8693 459.134 74.178 459.361 74.5909C459.588 75.0038 459.702 75.5568 459.702 76.25V82H458.361V80.8182H458.293C458.202 81.0076 458.05 81.2102 457.838 81.4261C457.626 81.642 457.344 81.8258 456.991 81.9773C456.639 82.1288 456.209 82.2045 455.702 82.2045ZM455.906 81C456.437 81 456.884 80.8958 457.247 80.6875C457.615 80.4792 457.891 80.2102 458.077 79.8807C458.266 79.5511 458.361 79.2045 458.361 78.8409V77.6136C458.304 77.6818 458.179 77.7443 457.986 77.8011C457.796 77.8542 457.577 77.9015 457.327 77.9432C457.08 77.9811 456.84 78.0152 456.605 78.0455C456.374 78.072 456.187 78.0947 456.043 78.1136C455.694 78.1591 455.368 78.233 455.065 78.3352C454.766 78.4337 454.524 78.5833 454.338 78.7841C454.156 78.9811 454.065 79.25 454.065 79.5909C454.065 80.0568 454.238 80.4091 454.582 80.6477C454.931 80.8826 455.372 81 455.906 81ZM465.445 82.1818C464.717 82.1818 464.075 81.9981 463.518 81.6307C462.962 81.2595 462.526 80.7367 462.212 80.0625C461.897 79.3845 461.74 78.5833 461.74 77.6591C461.74 76.7424 461.897 75.947 462.212 75.2727C462.526 74.5985 462.964 74.0777 463.524 73.7102C464.085 73.3428 464.732 73.1591 465.467 73.1591C466.036 73.1591 466.484 73.2538 466.814 73.4432C467.147 73.6288 467.401 73.8409 467.575 74.0795C467.753 74.3144 467.892 74.5076 467.99 74.6591H468.104V70.3636H469.445V82H468.149V80.6591H467.99C467.892 80.8182 467.751 81.0189 467.57 81.2614C467.388 81.5 467.128 81.714 466.791 81.9034C466.454 82.089 466.005 82.1818 465.445 82.1818ZM465.626 80.9773C466.164 80.9773 466.619 80.8371 466.99 80.5568C467.361 80.2727 467.643 79.8807 467.837 79.3807C468.03 78.8769 468.126 78.2955 468.126 77.6364C468.126 76.9848 468.032 76.4148 467.842 75.9261C467.653 75.4337 467.373 75.0511 467.001 74.7784C466.63 74.5019 466.172 74.3636 465.626 74.3636C465.058 74.3636 464.585 74.5095 464.206 74.8011C463.831 75.089 463.549 75.4811 463.359 75.9773C463.174 76.4697 463.081 77.0227 463.081 77.6364C463.081 78.2576 463.176 78.822 463.365 79.3295C463.558 79.8333 463.842 80.2348 464.217 80.5341C464.596 80.8295 465.066 80.9773 465.626 80.9773ZM475.632 82.1818C474.844 82.1818 474.153 81.9943 473.558 81.6193C472.967 81.2443 472.505 80.7197 472.172 80.0455C471.842 79.3712 471.678 78.5833 471.678 77.6818C471.678 76.7727 471.842 75.9792 472.172 75.3011C472.505 74.6231 472.967 74.0966 473.558 73.7216C474.153 73.3466 474.844 73.1591 475.632 73.1591C476.42 73.1591 477.109 73.3466 477.7 73.7216C478.295 74.0966 478.757 74.6231 479.087 75.3011C479.42 75.9792 479.587 76.7727 479.587 77.6818C479.587 78.5833 479.42 79.3712 479.087 80.0455C478.757 80.7197 478.295 81.2443 477.7 81.6193C477.109 81.9943 476.42 82.1818 475.632 82.1818ZM475.632 80.9773C476.231 80.9773 476.723 80.8239 477.109 80.517C477.496 80.2102 477.782 79.8068 477.967 79.3068C478.153 78.8068 478.246 78.2652 478.246 77.6818C478.246 77.0985 478.153 76.5549 477.967 76.0511C477.782 75.5473 477.496 75.1402 477.109 74.8295C476.723 74.5189 476.231 74.3636 475.632 74.3636C475.034 74.3636 474.541 74.5189 474.155 74.8295C473.768 75.1402 473.482 75.5473 473.297 76.0511C473.111 76.5549 473.018 77.0985 473.018 77.6818C473.018 78.2652 473.111 78.8068 473.297 79.3068C473.482 79.8068 473.768 80.2102 474.155 80.517C474.541 80.8239 475.034 80.9773 475.632 80.9773ZM481.634 85.2727V73.2727H482.929V74.6591H483.088C483.187 74.5076 483.323 74.3144 483.497 74.0795C483.675 73.8409 483.929 73.6288 484.259 73.4432C484.592 73.2538 485.043 73.1591 485.611 73.1591C486.346 73.1591 486.993 73.3428 487.554 73.7102C488.115 74.0777 488.552 74.5985 488.866 75.2727C489.181 75.947 489.338 76.7424 489.338 77.6591C489.338 78.5833 489.181 79.3845 488.866 80.0625C488.552 80.7367 488.116 81.2595 487.56 81.6307C487.003 81.9981 486.361 82.1818 485.634 82.1818C485.073 82.1818 484.624 82.089 484.287 81.9034C483.95 81.714 483.69 81.5 483.509 81.2614C483.327 81.0189 483.187 80.8182 483.088 80.6591H482.974V85.2727H481.634ZM482.952 77.6364C482.952 78.2955 483.048 78.8769 483.241 79.3807C483.435 79.8807 483.717 80.2727 484.088 80.5568C484.459 80.8371 484.914 80.9773 485.452 80.9773C486.012 80.9773 486.48 80.8295 486.855 80.5341C487.234 80.2348 487.518 79.8333 487.707 79.3295C487.901 78.822 487.997 78.2576 487.997 77.6364C487.997 77.0227 487.902 76.4697 487.713 75.9773C487.527 75.4811 487.245 75.089 486.866 74.8011C486.491 74.5095 486.02 74.3636 485.452 74.3636C484.906 74.3636 484.448 74.5019 484.077 74.7784C483.705 75.0511 483.425 75.4337 483.236 75.9261C483.046 76.4148 482.952 76.9848 482.952 77.6364ZM495.179 73.2727V74.4091H490.656V73.2727H495.179ZM491.974 71.1818H493.315V79.5C493.315 79.8788 493.37 80.1629 493.48 80.3523C493.594 80.5379 493.738 80.6629 493.912 80.7273C494.09 80.7879 494.277 80.8182 494.474 80.8182C494.622 80.8182 494.743 80.8106 494.838 80.7955C494.933 80.7765 495.009 80.7614 495.065 80.75L495.338 81.9545C495.247 81.9886 495.12 82.0227 494.957 82.0568C494.795 82.0947 494.588 82.1136 494.338 82.1136C493.959 82.1136 493.588 82.0322 493.224 81.8693C492.865 81.7064 492.565 81.4583 492.327 81.125C492.092 80.7917 491.974 80.3712 491.974 79.8636V71.1818ZM497.196 82V73.2727H498.537V82H497.196ZM497.878 71.8182C497.616 71.8182 497.391 71.7292 497.202 71.5511C497.016 71.3731 496.923 71.1591 496.923 70.9091C496.923 70.6591 497.016 70.4451 497.202 70.267C497.391 70.089 497.616 70 497.878 70C498.139 70 498.363 70.089 498.548 70.267C498.738 70.4451 498.832 70.6591 498.832 70.9091C498.832 71.1591 498.738 71.3731 498.548 71.5511C498.363 71.7292 498.139 71.8182 497.878 71.8182ZM504.538 82.1818C503.75 82.1818 503.059 81.9943 502.464 81.6193C501.874 81.2443 501.411 80.7197 501.078 80.0455C500.749 79.3712 500.584 78.5833 500.584 77.6818C500.584 76.7727 500.749 75.9792 501.078 75.3011C501.411 74.6231 501.874 74.0966 502.464 73.7216C503.059 73.3466 503.75 73.1591 504.538 73.1591C505.326 73.1591 506.016 73.3466 506.607 73.7216C507.201 74.0966 507.663 74.6231 507.993 75.3011C508.326 75.9792 508.493 76.7727 508.493 77.6818C508.493 78.5833 508.326 79.3712 507.993 80.0455C507.663 80.7197 507.201 81.2443 506.607 81.6193C506.016 81.9943 505.326 82.1818 504.538 82.1818ZM504.538 80.9773C505.137 80.9773 505.629 80.8239 506.016 80.517C506.402 80.2102 506.688 79.8068 506.874 79.3068C507.059 78.8068 507.152 78.2652 507.152 77.6818C507.152 77.0985 507.059 76.5549 506.874 76.0511C506.688 75.5473 506.402 75.1402 506.016 74.8295C505.629 74.5189 505.137 74.3636 504.538 74.3636C503.94 74.3636 503.447 74.5189 503.061 74.8295C502.675 75.1402 502.389 75.5473 502.203 76.0511C502.018 76.5549 501.925 77.0985 501.925 77.6818C501.925 78.2652 502.018 78.8068 502.203 79.3068C502.389 79.8068 502.675 80.2102 503.061 80.517C503.447 80.8239 503.94 80.9773 504.538 80.9773ZM511.881 76.75V82H510.54V73.2727H511.835V74.6364H511.949C512.153 74.1932 512.464 73.8371 512.881 73.5682C513.297 73.2955 513.835 73.1591 514.494 73.1591C515.085 73.1591 515.602 73.2803 516.045 73.5227C516.489 73.7614 516.833 74.125 517.08 74.6136C517.326 75.0985 517.449 75.7121 517.449 76.4545V82H516.108V76.5455C516.108 75.8598 515.93 75.3258 515.574 74.9432C515.218 74.5568 514.729 74.3636 514.108 74.3636C513.68 74.3636 513.297 74.4564 512.96 74.642C512.627 74.8277 512.364 75.0985 512.17 75.4545C511.977 75.8106 511.881 76.2424 511.881 76.75Z" fill="#9D9A9C"/>
<defs>
<clipPath id="clip0_38_777">
<rect width="32" height="32" fill="white" transform="translate(61.5 17.5)"/>
</clipPath>
<clipPath id="clip1_38_777">
<rect width="14" height="14" fill="white" transform="translate(70.5 82.5)"/>
</clipPath>
</defs>
</svg>
