<svg width="527" height="144" viewBox="0 0 527 144" fill="none" xmlns="http://www.w3.org/2000/svg">
<rect y="24.5" width="155" height="95" rx="16" fill="white"/>
<g clip-path="url(#clip0_44_788)">
<path d="M83.2146 35.9287H86.6432C87.2494 35.9287 87.8308 36.1695 88.2595 36.5982C88.6881 37.0268 88.9289 37.6082 88.9289 38.2144V61.0716C88.9289 61.6778 88.6881 62.2592 88.2595 62.6878C87.8308 63.1165 87.2494 63.3573 86.6432 63.3573H68.3575C67.7513 63.3573 67.1699 63.1165 66.7412 62.6878C66.3126 62.2592 66.0718 61.6778 66.0718 61.0716V38.2144C66.0718 37.6082 66.3126 37.0268 66.7412 36.5982C67.1699 36.1695 67.7513 35.9287 68.3575 35.9287H71.7861" stroke="#BD1A8D" stroke-width="2.28571" stroke-linecap="round" stroke-linejoin="round"/>
<path d="M80.9285 33.6426H74.0714C72.809 33.6426 71.7856 34.6659 71.7856 35.9283V37.0711C71.7856 38.3335 72.809 39.3569 74.0714 39.3569H80.9285C82.1909 39.3569 83.2142 38.3335 83.2142 37.0711V35.9283C83.2142 34.6659 82.1909 33.6426 80.9285 33.6426Z" stroke="#BD1A8D" stroke-width="2.28571" stroke-linecap="round" stroke-linejoin="round"/>
<path d="M71.7856 51.9286L76.3571 55.3572L82.0714 46.2144" stroke="#BD1A8D" stroke-width="2.28571" stroke-linecap="round" stroke-linejoin="round"/>
</g>
<path d="M29.3182 74.8636V86.5H27.9091V74.8636H29.3182ZM33.3026 81.25V86.5H31.9616V77.7727H33.2571V79.1364H33.3707C33.5753 78.6932 33.8859 78.3371 34.3026 78.0682C34.7192 77.7955 35.2571 77.6591 35.9162 77.6591C36.5071 77.6591 37.0241 77.7803 37.4673 78.0227C37.9105 78.2614 38.2552 78.625 38.5014 79.1136C38.7476 79.5985 38.8707 80.2121 38.8707 80.9545V86.5H37.5298V81.0455C37.5298 80.3598 37.3518 79.8258 36.9957 79.4432C36.6397 79.0568 36.151 78.8636 35.5298 78.8636C35.1018 78.8636 34.7192 78.9564 34.3821 79.142C34.0488 79.3277 33.7855 79.5985 33.5923 79.9545C33.3991 80.3106 33.3026 80.7424 33.3026 81.25ZM41.321 89.7727V77.7727H42.6165V79.1591H42.7756C42.8741 79.0076 43.0104 78.8144 43.1847 78.5795C43.3627 78.3409 43.6165 78.1288 43.946 77.9432C44.2794 77.7538 44.7301 77.6591 45.2983 77.6591C46.0331 77.6591 46.6809 77.8428 47.2415 78.2102C47.8021 78.5777 48.2396 79.0985 48.554 79.7727C48.8684 80.447 49.0256 81.2424 49.0256 82.1591C49.0256 83.0833 48.8684 83.8845 48.554 84.5625C48.2396 85.2367 47.804 85.7595 47.2472 86.1307C46.6903 86.4981 46.0483 86.6818 45.321 86.6818C44.7604 86.6818 44.3116 86.589 43.9744 86.4034C43.6373 86.214 43.3778 86 43.196 85.7614C43.0142 85.5189 42.8741 85.3182 42.7756 85.1591H42.6619V89.7727H41.321ZM42.6392 82.1364C42.6392 82.7955 42.7358 83.3769 42.929 83.8807C43.1222 84.3807 43.4044 84.7727 43.7756 85.0568C44.1468 85.3371 44.6013 85.4773 45.1392 85.4773C45.6998 85.4773 46.1676 85.3295 46.5426 85.0341C46.9214 84.7348 47.2055 84.3333 47.3949 83.8295C47.5881 83.322 47.6847 82.7576 47.6847 82.1364C47.6847 81.5227 47.59 80.9697 47.4006 80.4773C47.215 79.9811 46.9328 79.589 46.554 79.3011C46.179 79.0095 45.7074 78.8636 45.1392 78.8636C44.5938 78.8636 44.1354 79.0019 43.7642 79.2784C43.393 79.5511 43.1127 79.9337 42.9233 80.4261C42.7339 80.9148 42.6392 81.4848 42.6392 82.1364ZM56.571 82.9318V77.7727H57.9119V86.5H56.571V85.0227H56.4801C56.2756 85.4659 55.9574 85.8428 55.5256 86.1534C55.0938 86.4602 54.5483 86.6136 53.8892 86.6136C53.3438 86.6136 52.8589 86.4943 52.4347 86.2557C52.0104 86.0133 51.6771 85.6496 51.4347 85.1648C51.1922 84.6761 51.071 84.0606 51.071 83.3182V77.7727H52.4119V83.2273C52.4119 83.8636 52.59 84.3712 52.946 84.75C53.3059 85.1288 53.7642 85.3182 54.321 85.3182C54.6544 85.3182 54.9934 85.233 55.3381 85.0625C55.6866 84.892 55.9782 84.6307 56.2131 84.2784C56.4517 83.9261 56.571 83.4773 56.571 82.9318ZM64.1634 77.7727V78.9091H59.6406V77.7727H64.1634ZM60.9588 75.6818H62.2997V84C62.2997 84.3788 62.3546 84.6629 62.4645 84.8523C62.5781 85.0379 62.7221 85.1629 62.8963 85.2273C63.0743 85.2879 63.2618 85.3182 63.4588 85.3182C63.6065 85.3182 63.7277 85.3106 63.8224 85.2955C63.9171 85.2765 63.9929 85.2614 64.0497 85.25L64.3224 86.4545C64.2315 86.4886 64.1046 86.5227 63.9418 86.5568C63.7789 86.5947 63.5724 86.6136 63.3224 86.6136C62.9437 86.6136 62.5724 86.5322 62.2088 86.3693C61.849 86.2064 61.5497 85.9583 61.3111 85.625C61.0762 85.2917 60.9588 84.8712 60.9588 84.3636V75.6818ZM74.4759 77.7727V78.9091H69.9531V77.7727H74.4759ZM71.2713 75.6818H72.6122V84C72.6122 84.3788 72.6671 84.6629 72.777 84.8523C72.8906 85.0379 73.0346 85.1629 73.2088 85.2273C73.3868 85.2879 73.5743 85.3182 73.7713 85.3182C73.919 85.3182 74.0402 85.3106 74.1349 85.2955C74.2296 85.2765 74.3054 85.2614 74.3622 85.25L74.6349 86.4545C74.544 86.4886 74.4171 86.5227 74.2543 86.5568C74.0914 86.5947 73.8849 86.6136 73.6349 86.6136C73.2562 86.6136 72.8849 86.5322 72.5213 86.3693C72.1615 86.2064 71.8622 85.9583 71.6236 85.625C71.3887 85.2917 71.2713 84.8712 71.2713 84.3636V75.6818ZM78.0213 81.25V86.5H76.6804V74.8636H78.0213V79.1364H78.1349C78.3395 78.6856 78.6463 78.3277 79.0554 78.0625C79.4683 77.7936 80.0175 77.6591 80.7031 77.6591C81.2978 77.6591 81.8187 77.7784 82.2656 78.017C82.7126 78.2519 83.0592 78.6136 83.3054 79.1023C83.5554 79.5871 83.6804 80.2045 83.6804 80.9545V86.5H82.3395V81.0455C82.3395 80.3523 82.1596 79.8163 81.7997 79.4375C81.4437 79.0549 80.9493 78.8636 80.3168 78.8636C79.8774 78.8636 79.4834 78.9564 79.1349 79.142C78.7902 79.3277 78.5175 79.5985 78.3168 79.9545C78.1198 80.3106 78.0213 80.7424 78.0213 81.25ZM89.7926 86.6818C88.9517 86.6818 88.2263 86.4962 87.6165 86.125C87.0104 85.75 86.5426 85.2273 86.2131 84.5568C85.8873 83.8826 85.7244 83.0985 85.7244 82.2045C85.7244 81.3106 85.8873 80.5227 86.2131 79.8409C86.5426 79.1553 87.0009 78.6212 87.5881 78.2386C88.179 77.8523 88.8684 77.6591 89.6562 77.6591C90.1108 77.6591 90.5597 77.7348 91.0028 77.8864C91.446 78.0379 91.8494 78.2841 92.2131 78.625C92.5767 78.9621 92.8665 79.4091 93.0824 79.9659C93.2983 80.5227 93.4062 81.2083 93.4062 82.0227V82.5909H86.679V81.4318H92.0426C92.0426 80.9394 91.9441 80.5 91.7472 80.1136C91.554 79.7273 91.2775 79.4223 90.9176 79.1989C90.5616 78.9754 90.1411 78.8636 89.6562 78.8636C89.1222 78.8636 88.66 78.9962 88.2699 79.2614C87.8835 79.5227 87.5862 79.8636 87.3778 80.2841C87.1695 80.7045 87.0653 81.1553 87.0653 81.6364V82.4091C87.0653 83.0682 87.179 83.6269 87.4062 84.0852C87.6373 84.5398 87.9574 84.8864 88.3665 85.125C88.7756 85.3598 89.2509 85.4773 89.7926 85.4773C90.1449 85.4773 90.4631 85.428 90.7472 85.3295C91.035 85.2273 91.2831 85.0758 91.4915 84.875C91.6998 84.6705 91.8608 84.4167 91.9744 84.1136L93.2699 84.4773C93.1335 84.9167 92.9044 85.303 92.5824 85.6364C92.2604 85.9659 91.8627 86.2235 91.3892 86.4091C90.9157 86.5909 90.3835 86.6818 89.7926 86.6818ZM103.241 86.6818C102.514 86.6818 101.872 86.4981 101.315 86.1307C100.759 85.7595 100.323 85.2367 100.009 84.5625C99.6941 83.8845 99.5369 83.0833 99.5369 82.1591C99.5369 81.2424 99.6941 80.447 100.009 79.7727C100.323 79.0985 100.76 78.5777 101.321 78.2102C101.882 77.8428 102.529 77.6591 103.264 77.6591C103.832 77.6591 104.281 77.7538 104.611 77.9432C104.944 78.1288 105.198 78.3409 105.372 78.5795C105.55 78.8144 105.688 79.0076 105.787 79.1591H105.901V74.8636H107.241V86.5H105.946V85.1591H105.787C105.688 85.3182 105.548 85.5189 105.366 85.7614C105.185 86 104.925 86.214 104.588 86.4034C104.251 86.589 103.802 86.6818 103.241 86.6818ZM103.423 85.4773C103.961 85.4773 104.416 85.3371 104.787 85.0568C105.158 84.7727 105.44 84.3807 105.634 83.8807C105.827 83.3769 105.923 82.7955 105.923 82.1364C105.923 81.4848 105.829 80.9148 105.639 80.4261C105.45 79.9337 105.17 79.5511 104.798 79.2784C104.427 79.0019 103.969 78.8636 103.423 78.8636C102.855 78.8636 102.382 79.0095 102.003 79.3011C101.628 79.589 101.346 79.9811 101.156 80.4773C100.971 80.9697 100.878 81.5227 100.878 82.1364C100.878 82.7576 100.973 83.322 101.162 83.8295C101.355 84.3333 101.639 84.7348 102.014 85.0341C102.393 85.3295 102.863 85.4773 103.423 85.4773ZM113.429 86.6818C112.641 86.6818 111.95 86.4943 111.355 86.1193C110.764 85.7443 110.302 85.2197 109.969 84.5455C109.639 83.8712 109.474 83.0833 109.474 82.1818C109.474 81.2727 109.639 80.4792 109.969 79.8011C110.302 79.1231 110.764 78.5966 111.355 78.2216C111.95 77.8466 112.641 77.6591 113.429 77.6591C114.217 77.6591 114.906 77.8466 115.497 78.2216C116.092 78.5966 116.554 79.1231 116.884 79.8011C117.217 80.4792 117.384 81.2727 117.384 82.1818C117.384 83.0833 117.217 83.8712 116.884 84.5455C116.554 85.2197 116.092 85.7443 115.497 86.1193C114.906 86.4943 114.217 86.6818 113.429 86.6818ZM113.429 85.4773C114.027 85.4773 114.52 85.3239 114.906 85.017C115.293 84.7102 115.579 84.3068 115.764 83.8068C115.95 83.3068 116.043 82.7652 116.043 82.1818C116.043 81.5985 115.95 81.0549 115.764 80.5511C115.579 80.0473 115.293 79.6402 114.906 79.3295C114.52 79.0189 114.027 78.8636 113.429 78.8636C112.83 78.8636 112.338 79.0189 111.952 79.3295C111.565 79.6402 111.279 80.0473 111.094 80.5511C110.908 81.0549 110.815 81.5985 110.815 82.1818C110.815 82.7652 110.908 83.3068 111.094 83.8068C111.279 84.3068 111.565 84.7102 111.952 85.017C112.338 85.3239 112.83 85.4773 113.429 85.4773ZM122.953 89.9545C122.305 89.9545 121.749 89.8712 121.283 89.7045C120.817 89.5417 120.429 89.3258 120.118 89.0568C119.811 88.7917 119.567 88.5076 119.385 88.2045L120.453 87.4545C120.574 87.6136 120.728 87.7955 120.913 88C121.099 88.2083 121.353 88.3883 121.675 88.5398C122 88.6951 122.427 88.7727 122.953 88.7727C123.658 88.7727 124.239 88.6023 124.697 88.2614C125.156 87.9205 125.385 87.3864 125.385 86.6591V84.8864H125.271C125.173 85.0455 125.033 85.2424 124.851 85.4773C124.673 85.7083 124.415 85.9148 124.078 86.0966C123.745 86.2746 123.294 86.3636 122.726 86.3636C122.021 86.3636 121.389 86.197 120.828 85.8636C120.271 85.5303 119.83 85.0455 119.504 84.4091C119.182 83.7727 119.021 83 119.021 82.0909C119.021 81.197 119.179 80.4186 119.493 79.7557C119.807 79.089 120.245 78.5739 120.805 78.2102C121.366 77.8428 122.014 77.6591 122.749 77.6591C123.317 77.6591 123.768 77.7538 124.101 77.9432C124.438 78.1288 124.696 78.3409 124.874 78.5795C125.055 78.8144 125.196 79.0076 125.294 79.1591H125.43V77.7727H126.726V86.75C126.726 87.5 126.555 88.1098 126.214 88.5795C125.877 89.053 125.423 89.3996 124.851 89.6193C124.283 89.8428 123.65 89.9545 122.953 89.9545ZM122.908 85.1591C123.446 85.1591 123.9 85.036 124.271 84.7898C124.643 84.5436 124.925 84.1894 125.118 83.7273C125.311 83.2652 125.408 82.7121 125.408 82.0682C125.408 81.4394 125.313 80.8845 125.124 80.4034C124.934 79.9223 124.654 79.5455 124.283 79.2727C123.911 79 123.453 78.8636 122.908 78.8636C122.339 78.8636 121.866 79.0076 121.487 79.2955C121.112 79.5833 120.83 79.9697 120.641 80.4545C120.455 80.9394 120.362 81.4773 120.362 82.0682C120.362 82.6742 120.457 83.2102 120.646 83.6761C120.839 84.1383 121.124 84.5019 121.499 84.767C121.877 85.0284 122.347 85.1591 122.908 85.1591Z" fill="#BD1A8D"/>
<g clip-path="url(#clip1_44_788)">
<path fill-rule="evenodd" clip-rule="evenodd" d="M70.5 104.5C70.5 102.643 71.2375 100.863 72.5503 99.5503C73.863 98.2375 75.6435 97.5 77.5 97.5C79.3565 97.5 81.137 98.2375 82.4497 99.5503C83.7625 100.863 84.5 102.643 84.5 104.5C84.5 106.357 83.7625 108.137 82.4497 109.45C81.137 110.763 79.3565 111.5 77.5 111.5C75.6435 111.5 73.863 110.763 72.5503 109.45C71.2375 108.137 70.5 106.357 70.5 104.5ZM77.1005 107.496L81.1307 102.458L80.4027 101.875L76.9661 106.17L74.532 104.142L73.9347 104.858L77.1005 107.497V107.496Z" fill="#BD1A8D"/>
</g>
<rect x="155" y="69.5" width="25" height="5" fill="#BD1A8D"/>
<rect x="180" y="24.5" width="155" height="95" rx="16" fill="white"/>
<path d="M255.5 51.8332V53.1665C255.5 53.7221 255.695 54.1945 256.084 54.5838C256.473 54.9732 256.945 55.1674 257.5 55.1665C258.056 55.1665 258.528 54.9718 258.917 54.5825C259.307 54.1932 259.501 53.7212 259.5 53.1665V51.8332H260.833C261.389 51.8332 261.861 51.6385 262.251 51.2492C262.64 50.8598 262.834 50.3878 262.833 49.8332C262.833 49.2776 262.639 48.8052 262.249 48.4158C261.86 48.0265 261.388 47.8323 260.833 47.8332H259.5V46.4998C259.5 45.9443 259.305 45.4718 258.916 45.0825C258.527 44.6932 258.055 44.4989 257.5 44.4998C256.945 44.4998 256.472 44.6945 256.083 45.0838C255.693 45.4732 255.499 45.9452 255.5 46.4998V47.8332H254.167C253.611 47.8332 253.139 48.0278 252.749 48.4172C252.36 48.8065 252.166 49.2785 252.167 49.8332C252.167 50.3887 252.361 50.8612 252.751 51.2505C253.14 51.6398 253.612 51.8341 254.167 51.8332H255.5ZM249.5 60.4998C248.767 60.4998 248.139 60.2385 247.616 59.7158C247.093 59.1932 246.833 58.5656 246.833 57.8332V45.8332C246.833 45.4109 246.928 45.0109 247.117 44.6332C247.307 44.2554 247.568 43.9443 247.9 43.6998L255.9 37.6998C256.367 37.3443 256.9 37.1665 257.5 37.1665C258.1 37.1665 258.633 37.3443 259.1 37.6998L267.1 43.6998C267.433 43.9443 267.695 44.2554 267.884 44.6332C268.073 45.0109 268.168 45.4109 268.167 45.8332V57.8332C268.167 58.5665 267.905 59.1945 267.383 59.7172C266.86 60.2398 266.233 60.5007 265.5 60.4998H249.5ZM249.5 57.8332H265.5V45.8332L257.5 39.8332L249.5 45.8332V57.8332Z" fill="#BD1A8D"/>
<path d="M199.409 86.5V74.8636H203.341C204.25 74.8636 204.996 75.0189 205.58 75.3295C206.163 75.6364 206.595 76.0587 206.875 76.5966C207.155 77.1345 207.295 77.7462 207.295 78.4318C207.295 79.1174 207.155 79.7254 206.875 80.2557C206.595 80.786 206.165 81.2027 205.585 81.5057C205.006 81.8049 204.265 81.9545 203.364 81.9545H200.182V80.6818H203.318C203.939 80.6818 204.439 80.5909 204.818 80.4091C205.201 80.2273 205.477 79.9697 205.648 79.6364C205.822 79.2992 205.909 78.8977 205.909 78.4318C205.909 77.9659 205.822 77.5587 205.648 77.2102C205.473 76.8617 205.195 76.5928 204.812 76.4034C204.43 76.2102 203.924 76.1136 203.295 76.1136H200.818V86.5H199.409ZM204.886 81.2727L207.75 86.5H206.114L203.295 81.2727H204.886ZM213.027 86.6818C212.186 86.6818 211.461 86.4962 210.851 86.125C210.245 85.75 209.777 85.2273 209.447 84.5568C209.122 83.8826 208.959 83.0985 208.959 82.2045C208.959 81.3106 209.122 80.5227 209.447 79.8409C209.777 79.1553 210.235 78.6212 210.822 78.2386C211.413 77.8523 212.103 77.6591 212.891 77.6591C213.345 77.6591 213.794 77.7348 214.237 77.8864C214.68 78.0379 215.084 78.2841 215.447 78.625C215.811 78.9621 216.101 79.4091 216.317 79.9659C216.533 80.5227 216.641 81.2083 216.641 82.0227V82.5909H209.913V81.4318H215.277C215.277 80.9394 215.179 80.5 214.982 80.1136C214.788 79.7273 214.512 79.4223 214.152 79.1989C213.796 78.9754 213.375 78.8636 212.891 78.8636C212.357 78.8636 211.894 78.9962 211.504 79.2614C211.118 79.5227 210.821 79.8636 210.612 80.2841C210.404 80.7045 210.3 81.1553 210.3 81.6364V82.4091C210.3 83.0682 210.413 83.6269 210.641 84.0852C210.872 84.5398 211.192 84.8864 211.601 85.125C212.01 85.3598 212.485 85.4773 213.027 85.4773C213.379 85.4773 213.697 85.428 213.982 85.3295C214.269 85.2273 214.518 85.0758 214.726 84.875C214.934 84.6705 215.095 84.4167 215.209 84.1136L216.504 84.4773C216.368 84.9167 216.139 85.303 215.817 85.6364C215.495 85.9659 215.097 86.2235 214.624 86.4091C214.15 86.5909 213.618 86.6818 213.027 86.6818ZM224.862 79.7273L223.658 80.0682C223.582 79.8674 223.47 79.6723 223.322 79.483C223.179 79.2898 222.982 79.1307 222.732 79.0057C222.482 78.8807 222.161 78.8182 221.771 78.8182C221.237 78.8182 220.792 78.9413 220.436 79.1875C220.084 79.4299 219.908 79.7386 219.908 80.1136C219.908 80.447 220.029 80.7102 220.271 80.9034C220.514 81.0966 220.893 81.2576 221.408 81.3864L222.703 81.7045C223.483 81.8939 224.065 82.1837 224.447 82.5739C224.83 82.9602 225.021 83.4583 225.021 84.0682C225.021 84.5682 224.877 85.0152 224.589 85.4091C224.305 85.803 223.908 86.1136 223.396 86.3409C222.885 86.5682 222.29 86.6818 221.612 86.6818C220.722 86.6818 219.985 86.4886 219.402 86.1023C218.819 85.7159 218.449 85.1515 218.294 84.4091L219.567 84.0909C219.688 84.5606 219.917 84.9129 220.254 85.1477C220.595 85.3826 221.04 85.5 221.589 85.5C222.214 85.5 222.711 85.3674 223.078 85.1023C223.449 84.8333 223.635 84.5114 223.635 84.1364C223.635 83.8333 223.529 83.5795 223.317 83.375C223.105 83.1667 222.779 83.0114 222.339 82.9091L220.885 82.5682C220.086 82.3788 219.499 82.0852 219.124 81.6875C218.752 81.286 218.567 80.7841 218.567 80.1818C218.567 79.6894 218.705 79.2538 218.982 78.875C219.262 78.4962 219.643 78.1989 220.124 77.983C220.608 77.767 221.158 77.6591 221.771 77.6591C222.635 77.6591 223.313 77.8485 223.805 78.2273C224.302 78.6061 224.654 79.1061 224.862 79.7273ZM230.585 86.6818C229.767 86.6818 229.063 86.4886 228.472 86.1023C227.881 85.7159 227.426 85.1837 227.108 84.5057C226.79 83.8277 226.631 83.053 226.631 82.1818C226.631 81.2955 226.794 80.5133 227.119 79.8352C227.449 79.1534 227.907 78.6212 228.494 78.2386C229.085 77.8523 229.775 77.6591 230.562 77.6591C231.176 77.6591 231.729 77.7727 232.222 78C232.714 78.2273 233.117 78.5455 233.432 78.9545C233.746 79.3636 233.941 79.8409 234.017 80.3864H232.676C232.574 79.9886 232.347 79.6364 231.994 79.3295C231.646 79.0189 231.176 78.8636 230.585 78.8636C230.063 78.8636 229.604 79 229.21 79.2727C228.82 79.5417 228.515 79.9223 228.295 80.4148C228.08 80.9034 227.972 81.4773 227.972 82.1364C227.972 82.8106 228.078 83.3977 228.29 83.8977C228.506 84.3977 228.809 84.786 229.199 85.0625C229.593 85.339 230.055 85.4773 230.585 85.4773C230.934 85.4773 231.25 85.4167 231.534 85.2955C231.818 85.1742 232.059 85 232.256 84.7727C232.453 84.5455 232.593 84.2727 232.676 83.9545H234.017C233.941 84.4697 233.754 84.9337 233.455 85.3466C233.159 85.7557 232.767 86.0814 232.278 86.3239C231.794 86.5625 231.229 86.6818 230.585 86.6818ZM241.477 82.9318V77.7727H242.818V86.5H241.477V85.0227H241.386C241.182 85.4659 240.864 85.8428 240.432 86.1534C240 86.4602 239.455 86.6136 238.795 86.6136C238.25 86.6136 237.765 86.4943 237.341 86.2557C236.917 86.0133 236.583 85.6496 236.341 85.1648C236.098 84.6761 235.977 84.0606 235.977 83.3182V77.7727H237.318V83.2273C237.318 83.8636 237.496 84.3712 237.852 84.75C238.212 85.1288 238.67 85.3182 239.227 85.3182C239.561 85.3182 239.9 85.233 240.244 85.0625C240.593 84.892 240.884 84.6307 241.119 84.2784C241.358 83.9261 241.477 83.4773 241.477 82.9318ZM248.933 86.6818C248.092 86.6818 247.367 86.4962 246.757 86.125C246.151 85.75 245.683 85.2273 245.354 84.5568C245.028 83.8826 244.865 83.0985 244.865 82.2045C244.865 81.3106 245.028 80.5227 245.354 79.8409C245.683 79.1553 246.142 78.6212 246.729 78.2386C247.32 77.8523 248.009 77.6591 248.797 77.6591C249.251 77.6591 249.7 77.7348 250.143 77.8864C250.587 78.0379 250.99 78.2841 251.354 78.625C251.717 78.9621 252.007 79.4091 252.223 79.9659C252.439 80.5227 252.547 81.2083 252.547 82.0227V82.5909H245.82V81.4318H251.183C251.183 80.9394 251.085 80.5 250.888 80.1136C250.695 79.7273 250.418 79.4223 250.058 79.1989C249.702 78.9754 249.282 78.8636 248.797 78.8636C248.263 78.8636 247.801 78.9962 247.411 79.2614C247.024 79.5227 246.727 79.8636 246.518 80.2841C246.31 80.7045 246.206 81.1553 246.206 81.6364V82.4091C246.206 83.0682 246.32 83.6269 246.547 84.0852C246.778 84.5398 247.098 84.8864 247.507 85.125C247.916 85.3598 248.392 85.4773 248.933 85.4773C249.286 85.4773 249.604 85.428 249.888 85.3295C250.176 85.2273 250.424 85.0758 250.632 84.875C250.84 84.6705 251.001 84.4167 251.115 84.1136L252.411 84.4773C252.274 84.9167 252.045 85.303 251.723 85.6364C251.401 85.9659 251.003 86.2235 250.53 86.4091C250.056 86.5909 249.524 86.6818 248.933 86.6818ZM262.882 77.7727V78.9091H258.359V77.7727H262.882ZM259.678 75.6818H261.018V84C261.018 84.3788 261.073 84.6629 261.183 84.8523C261.297 85.0379 261.441 85.1629 261.615 85.2273C261.793 85.2879 261.981 85.3182 262.178 85.3182C262.325 85.3182 262.446 85.3106 262.541 85.2955C262.636 85.2765 262.712 85.2614 262.768 85.25L263.041 86.4545C262.95 86.4886 262.823 86.5227 262.661 86.5568C262.498 86.5947 262.291 86.6136 262.041 86.6136C261.662 86.6136 261.291 86.5322 260.928 86.3693C260.568 86.2064 260.268 85.9583 260.03 85.625C259.795 85.2917 259.678 84.8712 259.678 84.3636V75.6818ZM266.428 81.25V86.5H265.087V74.8636H266.428V79.1364H266.541C266.746 78.6856 267.053 78.3277 267.462 78.0625C267.875 77.7936 268.424 77.6591 269.109 77.6591C269.704 77.6591 270.225 77.7784 270.672 78.017C271.119 78.2519 271.465 78.6136 271.712 79.1023C271.962 79.5871 272.087 80.2045 272.087 80.9545V86.5H270.746V81.0455C270.746 80.3523 270.566 79.8163 270.206 79.4375C269.85 79.0549 269.356 78.8636 268.723 78.8636C268.284 78.8636 267.89 78.9564 267.541 79.142C267.196 79.3277 266.924 79.5985 266.723 79.9545C266.526 80.3106 266.428 80.7424 266.428 81.25ZM278.199 86.6818C277.358 86.6818 276.633 86.4962 276.023 86.125C275.417 85.75 274.949 85.2273 274.619 84.5568C274.294 83.8826 274.131 83.0985 274.131 82.2045C274.131 81.3106 274.294 80.5227 274.619 79.8409C274.949 79.1553 275.407 78.6212 275.994 78.2386C276.585 77.8523 277.275 77.6591 278.062 77.6591C278.517 77.6591 278.966 77.7348 279.409 77.8864C279.852 78.0379 280.256 78.2841 280.619 78.625C280.983 78.9621 281.273 79.4091 281.489 79.9659C281.705 80.5227 281.812 81.2083 281.812 82.0227V82.5909H275.085V81.4318H280.449C280.449 80.9394 280.35 80.5 280.153 80.1136C279.96 79.7273 279.684 79.4223 279.324 79.1989C278.968 78.9754 278.547 78.8636 278.062 78.8636C277.528 78.8636 277.066 78.9962 276.676 79.2614C276.29 79.5227 275.992 79.8636 275.784 80.2841C275.576 80.7045 275.472 81.1553 275.472 81.6364V82.4091C275.472 83.0682 275.585 83.6269 275.812 84.0852C276.044 84.5398 276.364 84.8864 276.773 85.125C277.182 85.3598 277.657 85.4773 278.199 85.4773C278.551 85.4773 278.869 85.428 279.153 85.3295C279.441 85.2273 279.689 85.0758 279.898 84.875C280.106 84.6705 280.267 84.4167 280.381 84.1136L281.676 84.4773C281.54 84.9167 281.311 85.303 280.989 85.6364C280.667 85.9659 280.269 86.2235 279.795 86.4091C279.322 86.5909 278.79 86.6818 278.199 86.6818ZM291.648 86.6818C290.92 86.6818 290.278 86.4981 289.722 86.1307C289.165 85.7595 288.729 85.2367 288.415 84.5625C288.1 83.8845 287.943 83.0833 287.943 82.1591C287.943 81.2424 288.1 80.447 288.415 79.7727C288.729 79.0985 289.167 78.5777 289.727 78.2102C290.288 77.8428 290.936 77.6591 291.67 77.6591C292.239 77.6591 292.688 77.7538 293.017 77.9432C293.35 78.1288 293.604 78.3409 293.778 78.5795C293.956 78.8144 294.095 79.0076 294.193 79.1591H294.307V74.8636H295.648V86.5H294.352V85.1591H294.193C294.095 85.3182 293.955 85.5189 293.773 85.7614C293.591 86 293.331 86.214 292.994 86.4034C292.657 86.589 292.208 86.6818 291.648 86.6818ZM291.83 85.4773C292.367 85.4773 292.822 85.3371 293.193 85.0568C293.564 84.7727 293.847 84.3807 294.04 83.8807C294.233 83.3769 294.33 82.7955 294.33 82.1364C294.33 81.4848 294.235 80.9148 294.045 80.4261C293.856 79.9337 293.576 79.5511 293.205 79.2784C292.833 79.0019 292.375 78.8636 291.83 78.8636C291.261 78.8636 290.788 79.0095 290.409 79.3011C290.034 79.589 289.752 79.9811 289.562 80.4773C289.377 80.9697 289.284 81.5227 289.284 82.1364C289.284 82.7576 289.379 83.322 289.568 83.8295C289.761 84.3333 290.045 84.7348 290.42 85.0341C290.799 85.3295 291.269 85.4773 291.83 85.4773ZM301.835 86.6818C301.047 86.6818 300.356 86.4943 299.761 86.1193C299.17 85.7443 298.708 85.2197 298.375 84.5455C298.045 83.8712 297.881 83.0833 297.881 82.1818C297.881 81.2727 298.045 80.4792 298.375 79.8011C298.708 79.1231 299.17 78.5966 299.761 78.2216C300.356 77.8466 301.047 77.6591 301.835 77.6591C302.623 77.6591 303.313 77.8466 303.903 78.2216C304.498 78.5966 304.96 79.1231 305.29 79.8011C305.623 80.4792 305.79 81.2727 305.79 82.1818C305.79 83.0833 305.623 83.8712 305.29 84.5455C304.96 85.2197 304.498 85.7443 303.903 86.1193C303.313 86.4943 302.623 86.6818 301.835 86.6818ZM301.835 85.4773C302.434 85.4773 302.926 85.3239 303.312 85.017C303.699 84.7102 303.985 84.3068 304.17 83.8068C304.356 83.3068 304.449 82.7652 304.449 82.1818C304.449 81.5985 304.356 81.0549 304.17 80.5511C303.985 80.0473 303.699 79.6402 303.312 79.3295C302.926 79.0189 302.434 78.8636 301.835 78.8636C301.237 78.8636 300.744 79.0189 300.358 79.3295C299.972 79.6402 299.686 80.0473 299.5 80.5511C299.314 81.0549 299.222 81.5985 299.222 82.1818C299.222 82.7652 299.314 83.3068 299.5 83.8068C299.686 84.3068 299.972 84.7102 300.358 85.017C300.744 85.3239 301.237 85.4773 301.835 85.4773ZM311.359 89.9545C310.712 89.9545 310.155 89.8712 309.689 89.7045C309.223 89.5417 308.835 89.3258 308.524 89.0568C308.217 88.7917 307.973 88.5076 307.791 88.2045L308.859 87.4545C308.981 87.6136 309.134 87.7955 309.32 88C309.505 88.2083 309.759 88.3883 310.081 88.5398C310.407 88.6951 310.833 88.7727 311.359 88.7727C312.064 88.7727 312.645 88.6023 313.104 88.2614C313.562 87.9205 313.791 87.3864 313.791 86.6591V84.8864H313.678C313.579 85.0455 313.439 85.2424 313.257 85.4773C313.079 85.7083 312.821 85.9148 312.484 86.0966C312.151 86.2746 311.7 86.3636 311.132 86.3636C310.428 86.3636 309.795 86.197 309.234 85.8636C308.678 85.5303 308.236 85.0455 307.911 84.4091C307.589 83.7727 307.428 83 307.428 82.0909C307.428 81.197 307.585 80.4186 307.899 79.7557C308.214 79.089 308.651 78.5739 309.212 78.2102C309.772 77.8428 310.42 77.6591 311.155 77.6591C311.723 77.6591 312.174 77.7538 312.507 77.9432C312.844 78.1288 313.102 78.3409 313.28 78.5795C313.462 78.8144 313.602 79.0076 313.7 79.1591H313.837V77.7727H315.132V86.75C315.132 87.5 314.962 88.1098 314.621 88.5795C314.284 89.053 313.829 89.3996 313.257 89.6193C312.689 89.8428 312.056 89.9545 311.359 89.9545ZM311.314 85.1591C311.852 85.1591 312.306 85.036 312.678 84.7898C313.049 84.5436 313.331 84.1894 313.524 83.7273C313.717 83.2652 313.814 82.7121 313.814 82.0682C313.814 81.4394 313.719 80.8845 313.53 80.4034C313.34 79.9223 313.06 79.5455 312.689 79.2727C312.318 79 311.859 78.8636 311.314 78.8636C310.746 78.8636 310.272 79.0076 309.893 79.2955C309.518 79.5833 309.236 79.9697 309.047 80.4545C308.861 80.9394 308.768 81.4773 308.768 82.0682C308.768 82.6742 308.863 83.2102 309.053 83.6761C309.246 84.1383 309.53 84.5019 309.905 84.767C310.284 85.0284 310.753 85.1591 311.314 85.1591Z" fill="#BD1A8D"/>
<g clip-path="url(#clip2_44_788)">
<path fill-rule="evenodd" clip-rule="evenodd" d="M250.5 104.5C250.5 102.643 251.237 100.863 252.55 99.5503C253.863 98.2375 255.643 97.5 257.5 97.5C259.357 97.5 261.137 98.2375 262.45 99.5503C263.763 100.863 264.5 102.643 264.5 104.5C264.5 106.357 263.763 108.137 262.45 109.45C261.137 110.763 259.357 111.5 257.5 111.5C255.643 111.5 253.863 110.763 252.55 109.45C251.237 108.137 250.5 106.357 250.5 104.5ZM257.101 107.496L261.131 102.458L260.403 101.875L256.966 106.17L254.532 104.142L253.935 104.858L257.101 107.497V107.496Z" fill="#BD1A8D"/>
</g>
<rect x="335" y="69.5" width="25" height="5" fill="#BD1A8D"/>
<rect x="360" width="167" height="144" rx="16" fill="#BD1A8D"/>
<path d="M452.081 53.0831L448.408 47.7773C448.136 47.3849 447.774 47.063 447.353 46.8383C446.931 46.6136 446.462 46.4926 445.985 46.4853L439.014 46.3853H439C435.401 46.3853 432.64 46.9872 430.862 49.9249C429.206 52.6594 428.5 57.3174 428.5 65.4999V66.4999H430.785L429.314 73.9999H431.352L432.823 66.4999H433.5C435.133 66.5145 436.707 65.8861 437.88 64.7504C438.942 63.7351 439.707 62.3459 440.094 60.7333L440.098 60.7188L441.813 52.4999H439.77L438.146 60.2804C437.652 62.3229 436.173 64.4999 433.5 64.4999H430.504C430.558 57.4208 431.203 53.2238 432.573 50.9603C433.723 49.0603 435.404 48.3859 438.993 48.3849L445.956 48.4849C446.115 48.4874 446.272 48.5277 446.412 48.6026C446.553 48.6775 446.673 48.7848 446.764 48.9156L450.919 54.9168L456.5 55.8471V56.907L455.569 61.8708C455.295 63.3359 454.825 64.0739 452.899 64.3052L445.005 65.6558L444.953 73.9999H446.953L446.995 67.3441L453.163 66.2879C454.561 66.1161 455.592 65.6657 456.315 64.9114C456.933 64.2666 457.309 63.4427 457.535 62.2394L458.5 57.0929V54.1528L452.081 53.0831Z" fill="white"/>
<path d="M375.737 97V85.3636H379.669C380.578 85.3636 381.324 85.5189 381.908 85.8295C382.491 86.1364 382.923 86.5587 383.203 87.0966C383.483 87.6345 383.624 88.2462 383.624 88.9318C383.624 89.6174 383.483 90.2254 383.203 90.7557C382.923 91.286 382.493 91.7027 381.913 92.0057C381.334 92.3049 380.593 92.4545 379.692 92.4545H376.51V91.1818H379.646C380.268 91.1818 380.768 91.0909 381.146 90.9091C381.529 90.7273 381.805 90.4697 381.976 90.1364C382.15 89.7992 382.237 89.3977 382.237 88.9318C382.237 88.4659 382.15 88.0587 381.976 87.7102C381.802 87.3617 381.523 87.0928 381.141 86.9034C380.758 86.7102 380.252 86.6136 379.624 86.6136H377.146V97H375.737ZM381.214 91.7727L384.078 97H382.442L379.624 91.7727H381.214ZM389.355 97.1818C388.514 97.1818 387.789 96.9962 387.179 96.625C386.573 96.25 386.105 95.7273 385.776 95.0568C385.45 94.3826 385.287 93.5985 385.287 92.7045C385.287 91.8106 385.45 91.0227 385.776 90.3409C386.105 89.6553 386.563 89.1212 387.151 88.7386C387.741 88.3523 388.431 88.1591 389.219 88.1591C389.673 88.1591 390.122 88.2348 390.565 88.3864C391.009 88.5379 391.412 88.7841 391.776 89.125C392.139 89.4621 392.429 89.9091 392.645 90.4659C392.861 91.0227 392.969 91.7083 392.969 92.5227V93.0909H386.241V91.9318H391.605C391.605 91.4394 391.507 91 391.31 90.6136C391.116 90.2273 390.84 89.9223 390.48 89.6989C390.124 89.4754 389.704 89.3636 389.219 89.3636C388.685 89.3636 388.223 89.4962 387.832 89.7614C387.446 90.0227 387.149 90.3636 386.94 90.7841C386.732 91.2045 386.628 91.6553 386.628 92.1364V92.9091C386.628 93.5682 386.741 94.1269 386.969 94.5852C387.2 95.0398 387.52 95.3864 387.929 95.625C388.338 95.8598 388.813 95.9773 389.355 95.9773C389.707 95.9773 390.026 95.928 390.31 95.8295C390.598 95.7273 390.846 95.5758 391.054 95.375C391.262 95.1705 391.423 94.9167 391.537 94.6136L392.832 94.9773C392.696 95.4167 392.467 95.803 392.145 96.1364C391.823 96.4659 391.425 96.7235 390.952 96.9091C390.478 97.0909 389.946 97.1818 389.355 97.1818ZM397.577 97.2045C397.024 97.2045 396.522 97.1004 396.071 96.892C395.62 96.6799 395.262 96.375 394.997 95.9773C394.732 95.5758 394.599 95.0909 394.599 94.5227C394.599 94.0227 394.698 93.6174 394.895 93.3068C395.092 92.9924 395.355 92.7462 395.685 92.5682C396.014 92.3902 396.378 92.2576 396.776 92.1705C397.177 92.0795 397.58 92.0076 397.986 91.9545C398.516 91.8864 398.946 91.8352 399.276 91.8011C399.609 91.7633 399.851 91.7008 400.003 91.6136C400.158 91.5265 400.236 91.375 400.236 91.1591V91.1136C400.236 90.553 400.082 90.1174 399.776 89.8068C399.473 89.4962 399.012 89.3409 398.395 89.3409C397.755 89.3409 397.253 89.4811 396.889 89.7614C396.526 90.0417 396.27 90.3409 396.122 90.6591L394.849 90.2045C395.077 89.6742 395.38 89.2614 395.759 88.9659C396.141 88.6667 396.558 88.4583 397.009 88.3409C397.463 88.2197 397.91 88.1591 398.349 88.1591C398.63 88.1591 398.952 88.1932 399.315 88.2614C399.683 88.3258 400.037 88.4602 400.378 88.6648C400.723 88.8693 401.009 89.178 401.236 89.5909C401.463 90.0038 401.577 90.5568 401.577 91.25V97H400.236V95.8182H400.168C400.077 96.0076 399.925 96.2102 399.713 96.4261C399.501 96.642 399.219 96.8258 398.866 96.9773C398.514 97.1288 398.084 97.2045 397.577 97.2045ZM397.781 96C398.312 96 398.759 95.8958 399.122 95.6875C399.49 95.4792 399.766 95.2102 399.952 94.8807C400.141 94.5511 400.236 94.2045 400.236 93.8409V92.6136C400.179 92.6818 400.054 92.7443 399.861 92.8011C399.671 92.8542 399.452 92.9015 399.202 92.9432C398.955 92.9811 398.715 93.0152 398.48 93.0455C398.249 93.072 398.062 93.0947 397.918 93.1136C397.569 93.1591 397.243 93.233 396.94 93.3352C396.641 93.4337 396.399 93.5833 396.213 93.7841C396.031 93.9811 395.94 94.25 395.94 94.5909C395.94 95.0568 396.113 95.4091 396.457 95.6477C396.806 95.8826 397.247 96 397.781 96ZM407.32 97.1818C406.592 97.1818 405.95 96.9981 405.393 96.6307C404.837 96.2595 404.401 95.7367 404.087 95.0625C403.772 94.3845 403.615 93.5833 403.615 92.6591C403.615 91.7424 403.772 90.947 404.087 90.2727C404.401 89.5985 404.839 89.0777 405.399 88.7102C405.96 88.3428 406.607 88.1591 407.342 88.1591C407.911 88.1591 408.359 88.2538 408.689 88.4432C409.022 88.6288 409.276 88.8409 409.45 89.0795C409.628 89.3144 409.767 89.5076 409.865 89.6591H409.979V85.3636H411.32V97H410.024V95.6591H409.865C409.767 95.8182 409.626 96.0189 409.445 96.2614C409.263 96.5 409.003 96.714 408.666 96.9034C408.329 97.089 407.88 97.1818 407.32 97.1818ZM407.501 95.9773C408.039 95.9773 408.494 95.8371 408.865 95.5568C409.236 95.2727 409.518 94.8807 409.712 94.3807C409.905 93.8769 410.001 93.2955 410.001 92.6364C410.001 91.9848 409.907 91.4148 409.717 90.9261C409.528 90.4337 409.248 90.0511 408.876 89.7784C408.505 89.5019 408.047 89.3636 407.501 89.3636C406.933 89.3636 406.46 89.5095 406.081 89.8011C405.706 90.089 405.424 90.4811 405.234 90.9773C405.049 91.4697 404.956 92.0227 404.956 92.6364C404.956 93.2576 405.051 93.822 405.24 94.3295C405.433 94.8333 405.717 95.2348 406.092 95.5341C406.471 95.8295 406.941 95.9773 407.501 95.9773ZM414.825 100.273C414.598 100.273 414.395 100.254 414.217 100.216C414.039 100.182 413.916 100.148 413.848 100.114L414.189 98.9318C414.515 99.0152 414.803 99.0455 415.053 99.0227C415.303 99 415.524 98.8883 415.717 98.6875C415.914 98.4905 416.094 98.1705 416.257 97.7273L416.507 97.0455L413.28 88.2727H414.734L417.143 95.2273H417.234L419.643 88.2727H421.098L417.393 98.2727C417.227 98.7235 417.02 99.0966 416.774 99.392C416.528 99.6913 416.242 99.9129 415.916 100.057C415.594 100.201 415.231 100.273 414.825 100.273ZM431.163 88.2727V89.4091H426.641V88.2727H431.163ZM427.959 86.1818H429.3V94.5C429.3 94.8788 429.355 95.1629 429.464 95.3523C429.578 95.5379 429.722 95.6629 429.896 95.7273C430.074 95.7879 430.262 95.8182 430.459 95.8182C430.607 95.8182 430.728 95.8106 430.822 95.7955C430.917 95.7765 430.993 95.7614 431.05 95.75L431.322 96.9545C431.232 96.9886 431.105 97.0227 430.942 97.0568C430.779 97.0947 430.572 97.1136 430.322 97.1136C429.944 97.1136 429.572 97.0322 429.209 96.8693C428.849 96.7064 428.55 96.4583 428.311 96.125C428.076 95.7917 427.959 95.3712 427.959 94.8636V86.1818ZM436.632 97.1818C435.844 97.1818 435.153 96.9943 434.558 96.6193C433.967 96.2443 433.505 95.7197 433.172 95.0455C432.842 94.3712 432.678 93.5833 432.678 92.6818C432.678 91.7727 432.842 90.9792 433.172 90.3011C433.505 89.6231 433.967 89.0966 434.558 88.7216C435.153 88.3466 435.844 88.1591 436.632 88.1591C437.42 88.1591 438.109 88.3466 438.7 88.7216C439.295 89.0966 439.757 89.6231 440.087 90.3011C440.42 90.9792 440.587 91.7727 440.587 92.6818C440.587 93.5833 440.42 94.3712 440.087 95.0455C439.757 95.7197 439.295 96.2443 438.7 96.6193C438.109 96.9943 437.42 97.1818 436.632 97.1818ZM436.632 95.9773C437.231 95.9773 437.723 95.8239 438.109 95.517C438.496 95.2102 438.782 94.8068 438.967 94.3068C439.153 93.8068 439.246 93.2652 439.246 92.6818C439.246 92.0985 439.153 91.5549 438.967 91.0511C438.782 90.5473 438.496 90.1402 438.109 89.8295C437.723 89.5189 437.231 89.3636 436.632 89.3636C436.034 89.3636 435.541 89.5189 435.155 89.8295C434.768 90.1402 434.482 90.5473 434.297 91.0511C434.111 91.5549 434.018 92.0985 434.018 92.6818C434.018 93.2652 434.111 93.8068 434.297 94.3068C434.482 94.8068 434.768 95.2102 435.155 95.517C435.541 95.8239 436.034 95.9773 436.632 95.9773ZM449.702 97.2045C449.149 97.2045 448.647 97.1004 448.196 96.892C447.745 96.6799 447.387 96.375 447.122 95.9773C446.857 95.5758 446.724 95.0909 446.724 94.5227C446.724 94.0227 446.823 93.6174 447.02 93.3068C447.217 92.9924 447.48 92.7462 447.81 92.5682C448.139 92.3902 448.503 92.2576 448.901 92.1705C449.302 92.0795 449.705 92.0076 450.111 91.9545C450.641 91.8864 451.071 91.8352 451.401 91.8011C451.734 91.7633 451.976 91.7008 452.128 91.6136C452.283 91.5265 452.361 91.375 452.361 91.1591V91.1136C452.361 90.553 452.207 90.1174 451.901 89.8068C451.598 89.4962 451.137 89.3409 450.52 89.3409C449.88 89.3409 449.378 89.4811 449.014 89.7614C448.651 90.0417 448.395 90.3409 448.247 90.6591L446.974 90.2045C447.202 89.6742 447.505 89.2614 447.884 88.9659C448.266 88.6667 448.683 88.4583 449.134 88.3409C449.588 88.2197 450.035 88.1591 450.474 88.1591C450.755 88.1591 451.077 88.1932 451.44 88.2614C451.808 88.3258 452.162 88.4602 452.503 88.6648C452.848 88.8693 453.134 89.178 453.361 89.5909C453.588 90.0038 453.702 90.5568 453.702 91.25V97H452.361V95.8182H452.293C452.202 96.0076 452.05 96.2102 451.838 96.4261C451.626 96.642 451.344 96.8258 450.991 96.9773C450.639 97.1288 450.209 97.2045 449.702 97.2045ZM449.906 96C450.437 96 450.884 95.8958 451.247 95.6875C451.615 95.4792 451.891 95.2102 452.077 94.8807C452.266 94.5511 452.361 94.2045 452.361 93.8409V92.6136C452.304 92.6818 452.179 92.7443 451.986 92.8011C451.796 92.8542 451.577 92.9015 451.327 92.9432C451.08 92.9811 450.84 93.0152 450.605 93.0455C450.374 93.072 450.187 93.0947 450.043 93.1136C449.694 93.1591 449.368 93.233 449.065 93.3352C448.766 93.4337 448.524 93.5833 448.338 93.7841C448.156 93.9811 448.065 94.25 448.065 94.5909C448.065 95.0568 448.238 95.4091 448.582 95.6477C448.931 95.8826 449.372 96 449.906 96ZM459.445 97.1818C458.717 97.1818 458.075 96.9981 457.518 96.6307C456.962 96.2595 456.526 95.7367 456.212 95.0625C455.897 94.3845 455.74 93.5833 455.74 92.6591C455.74 91.7424 455.897 90.947 456.212 90.2727C456.526 89.5985 456.964 89.0777 457.524 88.7102C458.085 88.3428 458.732 88.1591 459.467 88.1591C460.036 88.1591 460.484 88.2538 460.814 88.4432C461.147 88.6288 461.401 88.8409 461.575 89.0795C461.753 89.3144 461.892 89.5076 461.99 89.6591H462.104V85.3636H463.445V97H462.149V95.6591H461.99C461.892 95.8182 461.751 96.0189 461.57 96.2614C461.388 96.5 461.128 96.714 460.791 96.9034C460.454 97.089 460.005 97.1818 459.445 97.1818ZM459.626 95.9773C460.164 95.9773 460.619 95.8371 460.99 95.5568C461.361 95.2727 461.643 94.8807 461.837 94.3807C462.03 93.8769 462.126 93.2955 462.126 92.6364C462.126 91.9848 462.032 91.4148 461.842 90.9261C461.653 90.4337 461.373 90.0511 461.001 89.7784C460.63 89.5019 460.172 89.3636 459.626 89.3636C459.058 89.3636 458.585 89.5095 458.206 89.8011C457.831 90.089 457.549 90.4811 457.359 90.9773C457.174 91.4697 457.081 92.0227 457.081 92.6364C457.081 93.2576 457.176 93.822 457.365 94.3295C457.558 94.8333 457.842 95.2348 458.217 95.5341C458.596 95.8295 459.066 95.9773 459.626 95.9773ZM469.632 97.1818C468.844 97.1818 468.153 96.9943 467.558 96.6193C466.967 96.2443 466.505 95.7197 466.172 95.0455C465.842 94.3712 465.678 93.5833 465.678 92.6818C465.678 91.7727 465.842 90.9792 466.172 90.3011C466.505 89.6231 466.967 89.0966 467.558 88.7216C468.153 88.3466 468.844 88.1591 469.632 88.1591C470.42 88.1591 471.109 88.3466 471.7 88.7216C472.295 89.0966 472.757 89.6231 473.087 90.3011C473.42 90.9792 473.587 91.7727 473.587 92.6818C473.587 93.5833 473.42 94.3712 473.087 95.0455C472.757 95.7197 472.295 96.2443 471.7 96.6193C471.109 96.9943 470.42 97.1818 469.632 97.1818ZM469.632 95.9773C470.231 95.9773 470.723 95.8239 471.109 95.517C471.496 95.2102 471.782 94.8068 471.967 94.3068C472.153 93.8068 472.246 93.2652 472.246 92.6818C472.246 92.0985 472.153 91.5549 471.967 91.0511C471.782 90.5473 471.496 90.1402 471.109 89.8295C470.723 89.5189 470.231 89.3636 469.632 89.3636C469.034 89.3636 468.541 89.5189 468.155 89.8295C467.768 90.1402 467.482 90.5473 467.297 91.0511C467.111 91.5549 467.018 92.0985 467.018 92.6818C467.018 93.2652 467.111 93.8068 467.297 94.3068C467.482 94.8068 467.768 95.2102 468.155 95.517C468.541 95.8239 469.034 95.9773 469.632 95.9773ZM475.634 100.273V88.2727H476.929V89.6591H477.088C477.187 89.5076 477.323 89.3144 477.497 89.0795C477.675 88.8409 477.929 88.6288 478.259 88.4432C478.592 88.2538 479.043 88.1591 479.611 88.1591C480.346 88.1591 480.993 88.3428 481.554 88.7102C482.115 89.0777 482.552 89.5985 482.866 90.2727C483.181 90.947 483.338 91.7424 483.338 92.6591C483.338 93.5833 483.181 94.3845 482.866 95.0625C482.552 95.7367 482.116 96.2595 481.56 96.6307C481.003 96.9981 480.361 97.1818 479.634 97.1818C479.073 97.1818 478.624 97.089 478.287 96.9034C477.95 96.714 477.69 96.5 477.509 96.2614C477.327 96.0189 477.187 95.8182 477.088 95.6591H476.974V100.273H475.634ZM476.952 92.6364C476.952 93.2955 477.048 93.8769 477.241 94.3807C477.435 94.8807 477.717 95.2727 478.088 95.5568C478.459 95.8371 478.914 95.9773 479.452 95.9773C480.012 95.9773 480.48 95.8295 480.855 95.5341C481.234 95.2348 481.518 94.8333 481.707 94.3295C481.901 93.822 481.997 93.2576 481.997 92.6364C481.997 92.0227 481.902 91.4697 481.713 90.9773C481.527 90.4811 481.245 90.089 480.866 89.8011C480.491 89.5095 480.02 89.3636 479.452 89.3636C478.906 89.3636 478.448 89.5019 478.077 89.7784C477.705 90.0511 477.425 90.4337 477.236 90.9261C477.046 91.4148 476.952 91.9848 476.952 92.6364ZM489.179 88.2727V89.4091H484.656V88.2727H489.179ZM485.974 86.1818H487.315V94.5C487.315 94.8788 487.37 95.1629 487.48 95.3523C487.594 95.5379 487.738 95.6629 487.912 95.7273C488.09 95.7879 488.277 95.8182 488.474 95.8182C488.622 95.8182 488.743 95.8106 488.838 95.7955C488.933 95.7765 489.009 95.7614 489.065 95.75L489.338 96.9545C489.247 96.9886 489.12 97.0227 488.957 97.0568C488.795 97.0947 488.588 97.1136 488.338 97.1136C487.959 97.1136 487.588 97.0322 487.224 96.8693C486.865 96.7064 486.565 96.4583 486.327 96.125C486.092 95.7917 485.974 95.3712 485.974 94.8636V86.1818ZM491.196 97V88.2727H492.537V97H491.196ZM491.878 86.8182C491.616 86.8182 491.391 86.7292 491.202 86.5511C491.016 86.3731 490.923 86.1591 490.923 85.9091C490.923 85.6591 491.016 85.4451 491.202 85.267C491.391 85.089 491.616 85 491.878 85C492.139 85 492.363 85.089 492.548 85.267C492.738 85.4451 492.832 85.6591 492.832 85.9091C492.832 86.1591 492.738 86.3731 492.548 86.5511C492.363 86.7292 492.139 86.8182 491.878 86.8182ZM498.538 97.1818C497.75 97.1818 497.059 96.9943 496.464 96.6193C495.874 96.2443 495.411 95.7197 495.078 95.0455C494.749 94.3712 494.584 93.5833 494.584 92.6818C494.584 91.7727 494.749 90.9792 495.078 90.3011C495.411 89.6231 495.874 89.0966 496.464 88.7216C497.059 88.3466 497.75 88.1591 498.538 88.1591C499.326 88.1591 500.016 88.3466 500.607 88.7216C501.201 89.0966 501.663 89.6231 501.993 90.3011C502.326 90.9792 502.493 91.7727 502.493 92.6818C502.493 93.5833 502.326 94.3712 501.993 95.0455C501.663 95.7197 501.201 96.2443 500.607 96.6193C500.016 96.9943 499.326 97.1818 498.538 97.1818ZM498.538 95.9773C499.137 95.9773 499.629 95.8239 500.016 95.517C500.402 95.2102 500.688 94.8068 500.874 94.3068C501.059 93.8068 501.152 93.2652 501.152 92.6818C501.152 92.0985 501.059 91.5549 500.874 91.0511C500.688 90.5473 500.402 90.1402 500.016 89.8295C499.629 89.5189 499.137 89.3636 498.538 89.3636C497.94 89.3636 497.447 89.5189 497.061 89.8295C496.675 90.1402 496.389 90.5473 496.203 91.0511C496.018 91.5549 495.925 92.0985 495.925 92.6818C495.925 93.2652 496.018 93.8068 496.203 94.3068C496.389 94.8068 496.675 95.2102 497.061 95.517C497.447 95.8239 497.94 95.9773 498.538 95.9773ZM505.881 91.75V97H504.54V88.2727H505.835V89.6364H505.949C506.153 89.1932 506.464 88.8371 506.881 88.5682C507.297 88.2955 507.835 88.1591 508.494 88.1591C509.085 88.1591 509.602 88.2803 510.045 88.5227C510.489 88.7614 510.833 89.125 511.08 89.6136C511.326 90.0985 511.449 90.7121 511.449 91.4545V97H510.108V91.5455C510.108 90.8598 509.93 90.3258 509.574 89.9432C509.218 89.5568 508.729 89.3636 508.108 89.3636C507.68 89.3636 507.297 89.4564 506.96 89.642C506.627 89.8277 506.364 90.0985 506.17 90.4545C505.977 90.8106 505.881 91.2424 505.881 91.75Z" fill="white"/>
<defs>
<clipPath id="clip0_44_788">
<rect width="32" height="32" fill="white" transform="translate(61.5 32.5)"/>
</clipPath>
<clipPath id="clip1_44_788">
<rect width="14" height="14" fill="white" transform="translate(70.5 97.5)"/>
</clipPath>
<clipPath id="clip2_44_788">
<rect width="14" height="14" fill="white" transform="translate(250.5 97.5)"/>
</clipPath>
</defs>
</svg>
