<svg width="17" height="17" viewBox="0 0 17 17" fill="none" xmlns="http://www.w3.org/2000/svg">
<path d="M12.1288 6.39571L8.71746 2.98438L2.91904 8.78279C2.73815 8.96371 2.63653 9.20908 2.63653 9.46492C2.63653 9.72076 2.73815 9.96612 2.91904 10.147L4.73804 11.9703C4.83674 12.0692 4.95399 12.1477 5.08307 12.2013C5.21215 12.2549 5.35053 12.2824 5.49029 12.2824C5.63005 12.2824 5.76843 12.2549 5.89751 12.2013C6.0266 12.1477 6.14384 12.0692 6.24254 11.9703" stroke="#222222" stroke-width="1.0625" stroke-linecap="round" stroke-linejoin="round"/>
<path d="M0.53125 14.583L2.23692 12.8773M7.69462 1.96261L8.71746 2.98545M9.741 4.00899L12.1288 1.6212M13.493 2.98545L11.1053 5.37324M11.1053 0.597656L14.5166 4.00899M12.2187 10.5597V13.7472M10.625 12.1534H13.8125M3.25975 10.4895L1.55408 12.1952L2.91833 13.5594L4.624 11.8538L3.25975 10.4895ZM16.4687 11.0909C16.471 12.328 16.051 13.5288 15.2782 14.4947C14.5054 15.4607 13.4261 16.1341 12.2187 16.4034C11.0114 16.1341 9.93205 15.4607 9.15926 14.4947C8.38647 13.5288 7.96649 12.328 7.96875 11.0909V9.49716C7.96875 9.21536 8.08069 8.94511 8.27995 8.74586C8.47921 8.5466 8.74946 8.43466 9.03125 8.43466H15.4062C15.688 8.43466 15.9583 8.5466 16.1575 8.74586C16.3568 8.94511 16.4687 9.21536 16.4687 9.49716V11.0909Z" stroke="#222222" stroke-width="1.0625" stroke-linecap="round" stroke-linejoin="round"/>
</svg>
