<svg width="159" height="159" viewBox="0 0 159 159" fill="none" xmlns="http://www.w3.org/2000/svg">
<path d="M60.6136 119.35L60.6129 119.35C42.4492 102.926 27.4122 89.3151 16.9101 76.5031C6.41355 63.6977 0.5 51.7515 0.5 38.6649C0.5 17.2203 17.3352 0.5 38.775 0.5C50.8914 0.5 62.5282 6.12695 70.121 14.9485L70.5 15.3888L70.879 14.9485C78.4718 6.12695 90.1086 0.5 102.225 0.5C123.665 0.5 140.5 17.2203 140.5 38.6649C140.5 51.7515 134.586 63.6977 124.09 76.5031C113.588 89.3151 98.5508 102.926 80.3871 119.35L80.3864 119.35L70.5 128.325L60.6136 119.35Z" fill="white" stroke="#BD1A8D"/>
<path d="M132.869 125.164L130.731 151.793C130.731 151.793 133.646 159.179 123.736 158.791C113.826 158.402 119.655 143.241 119.655 143.241L122.764 123.415" fill="#3F3D56"/>
<path d="M103.947 154.914C103.805 154.914 103.662 154.91 103.517 154.904C100.022 154.737 98.0468 153.954 97.6473 152.575C96.9275 150.091 101.619 146.643 102.198 146.229L103.246 143.274C103.282 143.172 103.393 143.12 103.494 143.156C103.595 143.191 103.648 143.303 103.613 143.404L102.544 146.416C102.53 146.455 102.505 146.487 102.472 146.511C102.421 146.547 97.3466 150.142 98.0206 152.467C98.3689 153.669 100.224 154.358 103.536 154.515C105.741 154.621 107.674 153.88 109.278 152.313C115.293 146.44 114.995 130.77 114.991 130.612C114.989 130.505 115.074 130.416 115.181 130.413C115.283 130.413 115.377 130.496 115.38 130.603C115.395 131.253 115.686 146.599 109.55 152.591C107.97 154.134 106.087 154.914 103.947 154.914Z" fill="#2F2E41"/>
<path d="M104.304 150.239C105.275 154.903 110.814 149.169 110.814 149.169L117.42 148.392C117.42 148.392 121.598 148.489 124.319 150.627C127.039 152.765 128.885 149.947 128.885 149.947C131.95 150.969 135.705 150.965 138.957 150.637C143.643 150.166 147.4 146.548 148.044 141.881C151.677 115.555 131.703 102.618 131.703 102.618L125.873 86.8735C125.873 86.8735 127.719 82.3058 128.302 78.224C128.885 74.1422 124.61 70.2548 119.364 66.3674C117.068 64.6666 114.438 64.7889 112.205 65.4645C109.701 66.2225 107.516 67.7811 105.902 69.841C104.564 71.5476 102.27 73.9645 99.749 74.3832C98.8765 74.5271 98.0157 74.8731 97.2112 75.5028C96.3795 76.154 96.0122 77.2405 96.0006 78.5914C95.9384 84.4925 100.81 91.5967 105.081 92.7047C110.328 94.0653 107.51 106.991 107.51 106.991C98.9601 119.042 104.984 132.454 104.984 132.454L103.429 143.338C103.429 143.338 103.332 145.574 104.304 150.239Z" fill="#3F3D56"/>
<path d="M124.473 159C124.231 159 123.983 158.995 123.728 158.985C121.535 158.899 119.919 158.09 118.927 156.583C116.089 152.271 119.245 143.772 119.466 143.19L122.572 123.385C122.589 123.279 122.688 123.207 122.795 123.223C122.9 123.24 122.973 123.339 122.956 123.445L119.847 143.271C119.845 143.284 119.842 143.298 119.837 143.311C119.803 143.399 116.484 152.165 119.251 156.369C120.171 157.766 121.682 158.515 123.744 158.596C126.979 158.723 129.156 158.032 130.214 156.542C131.598 154.593 130.561 151.891 130.551 151.864C130.54 151.837 130.535 151.807 130.538 151.778L132.675 125.149C132.684 125.042 132.776 124.964 132.885 124.97C132.992 124.979 133.071 125.073 133.063 125.18L130.929 151.765C131.07 152.146 131.955 154.759 130.532 156.765C129.48 158.249 127.443 159 124.473 159Z" fill="#2F2E41"/>
<path d="M115.186 130.607C115.186 130.607 115.769 155.293 103.527 154.709C91.2847 154.126 102.361 146.351 102.361 146.351L103.43 143.339" fill="#3F3D56"/>
<path d="M96.0005 78.591C97.3957 78.7581 99.5798 78.7503 101.389 77.5433C103.326 76.2507 101.315 75.0456 99.7489 74.3828C98.8764 74.5266 98.0156 74.8726 97.2111 75.5024C96.3794 76.1535 96.0121 77.2401 96.0005 78.591Z" fill="#2F2E41"/>
<path d="M118.547 75.0961C118.547 75.0961 115.156 66.3851 120.013 66.2632C124.869 66.1413 128.705 73.6901 128.705 73.6901C128.705 73.6901 140.895 95.915 124.194 94.7165C107.494 93.5179 115.475 84.646 115.475 84.646C115.475 84.646 119.284 79.9617 118.547 75.0961Z" fill="#2F2E41"/>
<path d="M137.151 140.193C139.302 141.15 141.549 142.127 143.901 142.033C146.253 141.94 148.728 140.425 149.095 138.099C149.284 136.898 148.909 135.61 149.368 134.485C149.987 132.971 151.981 132.387 153.532 132.906C155.082 133.425 156.221 134.763 157.038 136.179C158.566 138.83 159.178 142.309 157.54 144.893C156.12 147.133 153.426 148.145 150.92 149.013C147.583 150.169 143.857 151.317 140.623 149.896C137.37 148.468 135.598 144.34 136.803 140.998" fill="#3F3D56"/>
<path d="M129.976 98.222C129.976 98.222 134.251 100.36 132.113 102.693C129.976 105.025 116.762 111.634 111.904 110.662C107.046 109.69 105.88 106.774 105.88 105.997C105.88 105.219 106.247 95.8144 107.801 96.2031C109.356 96.5919 119.094 105.414 129.976 98.222Z" fill="#BD1A8D"/>
</svg>
