<svg width="161" height="143" viewBox="0 0 161 143" fill="none" xmlns="http://www.w3.org/2000/svg">
<path d="M1.37184 121.751V121.75V27.75H13.7836V121.75V122.25H14.2836H87.5483V134.75H14.2836C10.7302 134.75 7.69893 133.481 5.1629 130.929C2.62679 128.376 1.36753 125.325 1.37184 121.751ZM28.1954 94.7506V94.75V13.75C28.1954 10.1702 29.457 7.11747 31.9931 4.56465C34.5291 2.01195 37.558 0.745676 41.1065 0.750011H41.1071H101.46C105.013 0.750011 108.045 2.01868 110.581 4.5714C113.117 7.1242 114.376 10.1745 114.372 13.7494V13.75V94.75C114.372 98.3298 113.11 101.383 110.574 103.935C108.038 106.488 105.009 107.754 101.461 107.75H101.46H41.1071C37.5537 107.75 34.5225 106.481 31.9864 103.929C29.4503 101.376 28.1911 98.3255 28.1954 94.7506Z" fill="white" stroke="#BD1A8D"/>
<path d="M134.485 108.914L132.347 135.543C132.347 135.543 135.262 142.929 125.352 142.541C115.442 142.152 121.271 126.991 121.271 126.991L124.38 107.165" fill="#3F3D56"/>
<path d="M105.563 138.664C105.42 138.664 105.278 138.66 105.133 138.654C101.638 138.487 99.6627 137.704 99.2632 136.325C98.5434 133.841 103.235 130.393 103.814 129.979L104.862 127.024C104.898 126.922 105.009 126.87 105.11 126.906C105.211 126.941 105.264 127.053 105.228 127.154L104.16 130.166C104.146 130.205 104.121 130.237 104.088 130.261C104.037 130.297 98.9625 133.892 99.6365 136.217C99.9849 137.419 101.84 138.108 105.152 138.265C107.357 138.371 109.29 137.63 110.894 136.063C116.909 130.19 116.611 114.52 116.607 114.362C116.605 114.255 116.69 114.166 116.797 114.163C116.899 114.163 116.993 114.246 116.996 114.353C117.011 115.003 117.301 130.349 111.166 136.341C109.586 137.884 107.703 138.664 105.563 138.664Z" fill="#2F2E41"/>
<path d="M105.92 133.989C106.891 138.653 112.43 132.919 112.43 132.919L119.036 132.142C119.036 132.142 123.214 132.239 125.935 134.377C128.655 136.515 130.501 133.697 130.501 133.697C133.566 134.719 137.321 134.715 140.573 134.387C145.259 133.916 149.016 130.298 149.66 125.631C153.293 99.305 133.319 86.3676 133.319 86.3676L127.489 70.6235C127.489 70.6235 129.335 66.0558 129.918 61.974C130.501 57.8922 126.226 54.0048 120.98 50.1174C118.684 48.4166 116.054 48.5389 113.821 49.2145C111.317 49.9725 109.132 51.5311 107.518 53.591C106.18 55.2976 103.886 57.7145 101.365 58.1332C100.492 58.2771 99.6316 58.6231 98.8272 59.2528C97.9955 59.904 97.6282 60.9905 97.6166 62.3414C97.5544 68.2425 102.426 75.3467 106.697 76.4547C111.944 77.8153 109.126 90.7409 109.126 90.7409C100.576 102.792 106.6 116.204 106.6 116.204L105.045 127.088C105.045 127.088 104.948 129.324 105.92 133.989Z" fill="#3F3D56"/>
<path d="M126.089 142.75C125.847 142.75 125.599 142.745 125.344 142.735C123.151 142.649 121.535 141.84 120.543 140.333C117.705 136.021 120.861 127.522 121.082 126.94L124.188 107.135C124.205 107.029 124.304 106.957 124.411 106.973C124.516 106.99 124.589 107.089 124.572 107.195L121.463 127.021C121.461 127.034 121.458 127.048 121.453 127.061C121.419 127.149 118.1 135.915 120.867 140.119C121.787 141.516 123.298 142.265 125.36 142.346C128.595 142.473 130.772 141.782 131.83 140.292C133.214 138.343 132.177 135.641 132.167 135.614C132.156 135.587 132.151 135.557 132.154 135.528L134.291 108.899C134.3 108.792 134.392 108.714 134.501 108.72C134.608 108.729 134.687 108.823 134.679 108.93L132.545 135.515C132.686 135.896 133.571 138.509 132.148 140.515C131.096 141.999 129.059 142.75 126.089 142.75Z" fill="#2F2E41"/>
<path d="M116.802 114.357C116.802 114.357 117.385 139.043 105.143 138.459C92.9007 137.876 103.977 130.101 103.977 130.101L105.046 127.089" fill="#3F3D56"/>
<path d="M97.6165 62.341C99.0117 62.5081 101.196 62.5003 103.005 61.2933C104.942 60.0007 102.931 58.7956 101.365 58.1328C100.492 58.2766 99.6315 58.6226 98.8271 59.2524C97.9954 59.9035 97.6281 60.9901 97.6165 62.341Z" fill="#2F2E41"/>
<path d="M120.163 58.8461C120.163 58.8461 116.772 50.1351 121.629 50.0132C126.485 49.8913 130.321 57.4401 130.321 57.4401C130.321 57.4401 142.51 79.665 125.81 78.4665C109.11 77.2679 117.091 68.396 117.091 68.396C117.091 68.396 120.9 63.7117 120.163 58.8461Z" fill="#2F2E41"/>
<path d="M138.767 123.943C140.918 124.9 143.165 125.877 145.517 125.783C147.869 125.69 150.344 124.175 150.711 121.849C150.9 120.648 150.525 119.36 150.984 118.235C151.603 116.721 153.597 116.137 155.148 116.656C156.698 117.175 157.837 118.513 158.654 119.929C160.182 122.58 160.794 126.059 159.156 128.643C157.736 130.883 155.042 131.895 152.536 132.763C149.199 133.919 145.473 135.067 142.239 133.646C138.986 132.218 137.214 128.09 138.419 124.748" fill="#3F3D56"/>
<path d="M131.592 81.972C131.592 81.972 135.867 84.1101 133.729 86.4425C131.592 88.775 118.378 95.3836 113.52 94.4117C108.662 93.4399 107.496 90.5243 107.496 89.7468C107.496 88.9693 107.863 79.5644 109.417 79.9531C110.972 80.3419 120.71 89.1637 131.592 81.972Z" fill="#BD1A8D"/>
</svg>
