<svg width="546" height="597" viewBox="0 0 546 597" fill="none" xmlns="http://www.w3.org/2000/svg">
<g clip-path="url(#clip0_2397_11786)">
<path d="M0.614613 558.15H545.776V556.921H0.614613C0.275174 556.921 0 557.196 0 557.536C0 557.875 0.275168 558.15 0.614613 558.15Z" fill="#3F3D56"/>
<path d="M249.533 568.601C252.606 583.356 270.122 565.22 270.122 565.22L291.019 562.761C291.019 562.761 304.233 563.068 312.838 569.831C321.443 576.594 327.281 567.679 327.281 567.679C336.976 570.911 348.852 570.898 359.138 569.863C373.96 568.372 385.841 556.928 387.878 542.167C399.369 458.901 336.193 417.981 336.193 417.981L317.755 368.184C317.755 368.184 323.594 353.737 325.437 340.826C327.281 327.916 313.76 315.62 297.165 303.325C289.905 297.946 281.586 298.332 274.525 300.469C266.603 302.867 259.693 307.796 254.587 314.312C250.357 319.709 243.101 327.354 235.126 328.678C232.367 329.133 229.644 330.228 227.099 332.219C224.469 334.279 223.307 337.716 223.27 341.988C223.074 360.653 238.482 383.123 251.991 386.627C268.586 390.931 259.674 431.813 259.674 431.813C232.631 469.93 251.684 512.349 251.684 512.349L246.767 546.777C246.767 546.777 246.46 553.847 249.533 568.601Z" fill="#3F3D56"/>
<path d="M339.881 489.295L333.12 573.519C333.12 573.519 342.339 596.881 310.994 595.651C279.649 594.422 298.087 546.469 298.087 546.469L307.921 483.762" fill="#3F3D56"/>
<path d="M313.326 596.313C312.56 596.313 311.776 596.297 310.97 596.265C304.031 595.994 298.921 593.437 295.782 588.668C286.808 575.031 296.79 548.15 297.49 546.31L307.314 483.666C307.366 483.331 307.679 483.105 308.016 483.154C308.351 483.207 308.581 483.522 308.528 483.857L298.695 546.565C298.687 546.607 298.677 546.649 298.661 546.69C298.554 546.968 288.058 574.697 296.81 587.993C299.719 592.411 304.499 594.781 311.018 595.037C321.253 595.436 328.137 593.252 331.483 588.54C335.862 582.375 332.582 573.83 332.548 573.744C332.514 573.657 332.5 573.563 332.507 573.47L339.268 489.246C339.295 488.908 339.586 488.661 339.93 488.682C340.269 488.709 340.521 489.005 340.494 489.344L333.744 573.43C334.19 574.636 336.99 582.901 332.491 589.245C329.161 593.939 322.719 596.313 313.326 596.313Z" fill="#2F2E41"/>
<path d="M283.951 506.509C283.951 506.509 285.795 584.586 247.074 582.741C208.354 580.897 243.387 556.306 243.387 556.306L246.767 546.777" fill="#3F3D56"/>
<path d="M248.403 583.388C247.954 583.388 247.502 583.378 247.045 583.356C235.989 582.829 229.742 580.352 228.479 575.992C226.202 568.135 241.041 557.228 242.872 555.917L246.188 546.572C246.301 546.251 246.652 546.084 246.972 546.198C247.292 546.311 247.46 546.663 247.346 546.983L243.966 556.512C243.923 556.632 243.844 556.736 243.74 556.809C243.578 556.923 227.528 568.296 229.66 575.65C230.761 579.449 236.63 581.629 247.104 582.128C254.079 582.463 260.193 580.117 265.266 575.163C284.29 556.587 283.349 507.022 283.337 506.524C283.329 506.185 283.597 505.903 283.937 505.895C284.258 505.895 284.557 506.156 284.566 506.495C284.614 508.552 285.532 557.09 266.126 576.042C261.13 580.92 255.173 583.388 248.403 583.388Z" fill="#2F2E41"/>
<path d="M223.27 341.989C227.683 342.517 234.592 342.493 240.314 338.675C246.441 334.587 240.08 330.775 235.126 328.679C232.367 329.134 229.644 330.228 227.099 332.22C224.469 334.279 223.307 337.716 223.27 341.989Z" fill="#2F2E41"/>
<path d="M294.583 330.933C294.583 330.933 283.858 303.381 299.219 302.996C314.579 302.61 326.712 326.486 326.712 326.486C326.712 326.486 365.265 396.782 312.444 392.991C259.623 389.2 284.864 361.139 284.864 361.139C284.864 361.139 296.912 346.323 294.583 330.933Z" fill="#2F2E41"/>
<path d="M353.426 536.827C360.229 539.854 367.336 542.943 374.775 542.647C382.214 542.352 390.043 537.559 391.202 530.203C391.801 526.406 390.614 522.331 392.067 518.773C394.023 513.984 400.332 512.138 405.236 513.779C410.14 515.42 413.743 519.651 416.326 524.132C421.159 532.516 423.095 543.519 417.913 551.691C413.421 558.776 404.902 561.977 396.977 564.723C386.42 568.38 374.635 572.01 364.406 567.518C354.118 562.999 348.515 549.945 352.324 539.372" fill="#3F3D56"/>
<path d="M330.732 404.079C330.732 404.079 344.253 410.841 337.493 418.219C330.732 425.596 288.938 446.498 273.573 443.425C258.208 440.351 254.52 431.129 254.52 428.67C254.52 426.211 255.679 396.464 260.596 397.693C265.513 398.923 296.314 426.826 330.732 404.079Z" fill="#BD1A8D"/>
<path d="M186.003 509.833C184.083 524.963 177.383 538.913 169.913 552.333C169.543 553.003 169.173 553.663 168.793 554.333H72.0129C70.2932 553.723 68.6027 553.053 66.9231 552.333C60.7306 549.73 54.8503 546.44 49.3928 542.523C17.9128 519.843 5.79318 476.983 11.2732 438.583C14.6628 414.713 25.1428 390.353 45.5329 377.503C56.6048 370.766 69.81 368.452 82.5129 371.023C82.843 371.083 83.1731 371.153 83.5032 371.233C94.1628 373.633 103.663 379.593 109.073 389.203C118.793 406.473 113.003 427.863 108.223 447.083C103.453 466.313 100.873 489.313 114.703 503.493C112.674 497.565 112.261 491.204 113.506 485.063C114.751 478.922 117.608 473.223 121.786 468.553C125.963 463.883 131.309 460.41 137.273 458.491C143.238 456.572 149.606 456.276 155.723 457.633C156.723 457.843 157.713 458.083 158.693 458.383C161.042 459.071 163.306 460.021 165.443 461.213C181.753 470.323 188.353 491.303 186.003 509.833Z" fill="#F2F2F2"/>
<path d="M122.904 552.334C125.064 553.064 127.244 553.724 129.434 554.334H119.964C118.204 553.714 116.457 553.047 114.724 552.334C114.344 552.184 113.954 552.024 113.574 551.864C99.2836 545.874 86.1239 536.874 76.1737 524.894C71.298 519.097 67.3204 512.602 64.3739 505.624C61.1695 497.742 59.1347 489.434 58.334 480.964C56.5337 463.584 58.3638 445.724 61.8037 428.654C65.3521 410.96 71.0826 393.776 78.8638 377.494C79.8037 375.544 80.7703 373.604 81.7637 371.674C81.8337 371.517 81.9371 371.378 82.0667 371.266C82.1962 371.153 82.3488 371.071 82.5137 371.024C82.6844 370.992 82.8598 370.994 83.0298 371.03C83.1998 371.066 83.3609 371.135 83.5039 371.234C83.8477 371.431 84.1028 371.752 84.2163 372.132C84.3298 372.512 84.2931 372.92 84.1138 373.274C76.0938 388.912 70.0154 405.471 66.0137 422.584C62.0937 439.284 59.8638 456.754 60.6338 473.914C61.3535 489.954 65.5439 505.724 75.0537 518.844C83.9105 530.765 95.5626 540.326 108.984 546.684C113.494 548.871 118.145 550.759 122.904 552.334Z" fill="white"/>
<path d="M161.073 554.334H157.403C156.883 553.674 156.383 553.004 155.893 552.334C148.673 542.522 143.752 531.214 141.493 519.244C138.415 502.479 140.813 485.17 148.333 469.874C150.433 465.585 152.906 461.49 155.723 457.634C156.723 457.844 157.713 458.084 158.693 458.384C151.274 468.21 146.285 479.651 144.133 491.774C142.341 502.379 142.778 513.24 145.415 523.667C148.053 534.094 152.834 543.857 159.453 552.334C159.983 553.014 160.523 553.684 161.073 554.334Z" fill="white"/>
</g>
<path d="M234.25 211.792V174.417H196.875V149.5H234.25V112.125H259.167V149.5H296.542V174.417H259.167V211.792H234.25ZM147.042 261.625L107.486 226.119C92.5365 212.622 79.7168 200.579 69.0276 189.99C58.33 179.4 49.5054 169.433 42.5536 160.09C35.5936 150.746 30.5064 141.714 27.2922 132.993C24.0696 124.272 22.4583 115.136 22.4583 105.584C22.4583 86.0663 28.999 69.8165 42.0802 56.8349C55.1615 43.8616 71.4611 37.375 90.9792 37.375C101.776 37.375 112.055 39.605 121.814 44.0651C131.573 48.5335 139.982 54.9205 147.042 63.226C154.101 54.9205 162.511 48.5335 172.27 44.0651C182.029 39.605 192.307 37.375 203.104 37.375C220.753 37.375 235.546 42.7196 247.481 53.4089C259.424 64.1064 266.849 76.6188 269.756 90.9458C266.019 89.4924 262.281 88.4002 258.544 87.6693C254.806 86.9467 251.173 86.5854 247.643 86.5854C226.671 86.5854 208.814 93.9026 194.072 108.537C179.33 123.18 171.958 140.987 171.958 161.958C171.958 172.756 174.139 182.98 178.499 192.631C182.859 202.29 188.985 210.546 196.875 217.398C192.93 220.928 187.789 225.446 181.452 230.953C175.123 236.451 169.674 241.276 165.106 245.429L147.042 261.625Z" fill="#BD1A8D"/>
<defs>
<clipPath id="clip0_2397_11786">
<rect width="545.776" height="297.313" fill="white" transform="translate(0 299)"/>
</clipPath>
</defs>
</svg>
