<svg width="200" height="200" viewBox="0 0 200 200" fill="none" xmlns="http://www.w3.org/2000/svg">
<path d="M150 91.6673C150 99.3278 148.491 106.913 145.559 113.991C142.628 121.068 138.331 127.498 132.914 132.915C127.497 138.332 121.067 142.629 113.99 145.56C106.912 148.492 99.3268 150.001 91.6663 150.001C84.0059 150.001 76.4205 148.492 69.3431 145.56C62.2658 142.629 55.8352 138.332 50.4184 132.915C45.0017 127.498 40.7049 121.068 37.7734 113.991C34.8418 106.913 33.333 99.3278 33.333 91.6673C33.333 76.1964 39.4788 61.359 50.4184 50.4194C61.3581 39.4798 76.1954 33.334 91.6663 33.334C107.137 33.334 121.975 39.4798 132.914 50.4194C143.854 61.359 150 76.1964 150 91.6673Z" fill="white"/>
<path d="M166.667 166.667L150 150" stroke="white" stroke-width="16.6667" stroke-linecap="round"/>
<path d="M91.1878 85.687L108.884 92.067V118.093C108.884 118.599 108.685 119.084 108.331 119.441C107.977 119.799 107.497 120 106.996 120H99.4424C98.9416 120 98.4613 119.799 98.1071 119.441C97.753 119.084 97.554 118.599 97.554 118.093V104.75H78.6701V118.093C78.6701 118.599 78.4711 119.084 78.117 119.441C77.7628 119.799 77.2825 120 76.7817 120H69.2281C68.7273 120 68.247 119.799 67.8928 119.441C67.5387 119.084 67.3397 118.599 67.3397 118.093V92.6079C62.9539 91.0293 59.7861 86.8379 59.7861 81.8745C59.7861 80.8634 60.184 79.8936 60.8923 79.1787C61.6006 78.4637 62.5613 78.062 63.5629 78.062C64.5646 78.062 65.5252 78.4637 66.2335 79.1787C66.9418 79.8936 67.3397 80.8634 67.3397 81.8745C67.3416 82.8851 67.7401 83.8537 68.448 84.5683C69.1559 85.2828 70.1154 85.6851 71.1165 85.687H91.1878ZM120.215 72.3432V76.1557C120.215 78.178 119.419 80.1175 118.002 81.5474C116.586 82.9774 114.665 83.7807 112.661 83.7807H108.884V88.0198L93.7772 82.5739V64.7182C93.7772 63.0205 95.8096 62.1698 97.0005 63.3708L100.22 66.6245H106.55C107.838 66.6245 109.353 67.5681 109.928 68.7321L110.773 70.437H118.326C118.827 70.437 119.308 70.6378 119.662 70.9953C120.016 71.3528 120.215 71.8377 120.215 72.3432ZM106.996 72.3432C106.996 71.9662 106.885 71.5977 106.678 71.2842C106.47 70.9707 106.175 70.7264 105.83 70.5821C105.485 70.4378 105.106 70.4001 104.739 70.4736C104.373 70.5472 104.036 70.7287 103.772 70.9953C103.508 71.2619 103.328 71.6016 103.256 71.9714C103.183 72.3411 103.22 72.7244 103.363 73.0727C103.506 73.4211 103.748 73.7188 104.058 73.9282C104.369 74.1377 104.734 74.2495 105.108 74.2495C105.608 74.2495 106.089 74.0487 106.443 73.6912C106.797 73.3337 106.996 72.8488 106.996 72.3432Z" fill="#BD1A8D"/>
</svg>
