<svg width="83" height="83" viewBox="0 0 83 83" fill="none" xmlns="http://www.w3.org/2000/svg">
<path d="M43.2573 0.465556C42.583 0.160537 41.8604 0 41.1057 0C40.3511 0 39.6285 0.160537 38.9541 0.465556L8.71916 13.2924C5.18667 14.7854 2.55335 18.2691 2.56941 22.4751C2.64969 38.4004 9.20087 67.5377 36.8667 80.782C39.5482 82.0663 42.6632 82.0663 45.3447 80.782C73.0106 67.5377 79.5618 38.4004 79.642 22.4751C79.6581 18.2691 77.0248 14.7854 73.4923 13.2924L43.2573 0.465556ZM25.8357 45.9456C26.6064 46.1382 27.4253 46.2345 28.2603 46.2345C33.9283 46.2345 38.5366 41.6271 38.5366 35.9602V25.6859H45.6337C47.5766 25.6859 49.3589 26.7775 50.226 28.5274L51.3821 30.823H61.6584C63.0714 30.823 64.2275 31.9789 64.2275 33.3916V38.5288C64.2275 45.6245 58.4792 51.3717 51.3821 51.3717H43.6748V59.5109C43.6748 60.6828 42.7275 61.646 41.5393 61.646C41.2502 61.646 40.9612 61.5818 40.7043 61.4695L24.8562 54.6788C23.7965 54.2293 23.1221 53.1858 23.1221 52.046C23.1221 51.5965 23.2185 51.163 23.4272 50.7617L25.8357 45.9456ZM25.6912 25.6859H33.3985V35.9602C33.3985 38.8017 31.1023 41.0974 28.2603 41.0974C25.4182 41.0974 23.1221 38.8017 23.1221 35.9602V28.2544C23.1221 26.8417 24.2782 25.6859 25.6912 25.6859ZM46.2439 33.3916C46.2439 32.7104 45.9732 32.057 45.4914 31.5753C45.0096 31.0936 44.3562 30.823 43.6748 30.823C42.9935 30.823 42.34 31.0936 41.8582 31.5753C41.3764 32.057 41.1057 32.7104 41.1057 33.3916C41.1057 34.0728 41.3764 34.7262 41.8582 35.2079C42.34 35.6896 42.9935 35.9602 43.6748 35.9602C44.3562 35.9602 45.0096 35.6896 45.4914 35.2079C45.9732 34.7262 46.2439 34.0728 46.2439 33.3916Z" fill="#222222"/>
</svg>
