<svg width="17" height="17" viewBox="0 0 17 17" fill="none" xmlns="http://www.w3.org/2000/svg">
<path fill-rule="evenodd" clip-rule="evenodd" d="M8.5 12.7513C8.77485 12.7508 9.04383 12.8307 9.27386 12.9812L9.91738 1.41797L10.2708 1.4378L10.6243 1.41797L11.2678 12.9812C11.5314 12.8093 11.8447 12.73 12.1583 12.756C12.472 12.7819 12.768 12.9115 12.9998 13.1243C13.2316 13.3372 13.3859 13.6211 13.4384 13.9314C13.4909 14.2417 13.4387 14.5606 13.2898 14.8379C13.141 15.1151 12.9041 15.3349 12.6164 15.4626C12.3288 15.5903 12.0069 15.6186 11.7014 15.543C11.3959 15.4674 11.1243 15.2923 10.9294 15.0453C10.7345 14.7982 10.6274 14.4933 10.625 14.1786L10.5457 12.7556H9.99565L9.91667 14.1786C9.91457 14.4583 9.82971 14.7312 9.67277 14.9627C9.51584 15.1943 9.29386 15.3742 9.03482 15.4798C8.77578 15.5854 8.49127 15.612 8.21717 15.5561C7.94307 15.5003 7.69164 15.3645 7.49457 15.166C7.29751 14.9674 7.16364 14.715 7.10983 14.4405C7.05602 14.1659 7.08469 13.8817 7.19222 13.6234C7.29975 13.3652 7.48133 13.1445 7.71406 12.9893C7.94679 12.8341 8.22027 12.7513 8.5 12.7513ZM10.2708 7.8128L10.5064 12.0472H10.0353L10.2708 7.8128ZM10.2708 6.74286C10.3183 6.74439 10.3655 6.73637 10.4098 6.71927C10.454 6.70218 10.4944 6.67637 10.5285 6.64337C10.5626 6.61036 10.5897 6.57085 10.6083 6.52716C10.6268 6.48347 10.6364 6.43651 10.6364 6.38906C10.6364 6.34161 10.6269 6.29463 10.6084 6.25093C10.5899 6.20722 10.5628 6.16768 10.5288 6.13464C10.4947 6.10161 10.4544 6.07575 10.4101 6.05862C10.3659 6.04148 10.3186 6.03341 10.2712 6.03489C10.1792 6.03775 10.092 6.07627 10.028 6.14231C9.96393 6.20835 9.92809 6.29671 9.92804 6.3887C9.928 6.4807 9.96375 6.5691 10.0277 6.6352C10.0917 6.7013 10.1789 6.73991 10.2708 6.74286ZM8.5 13.4596C8.31214 13.4596 8.13197 13.5343 7.99914 13.6671C7.8663 13.7999 7.79167 13.9801 7.79167 14.168C7.79167 14.3558 7.8663 14.536 7.99914 14.6688C8.13197 14.8017 8.31214 14.8763 8.5 14.8763C8.68787 14.8763 8.86803 14.8017 9.00087 14.6688C9.13371 14.536 9.20834 14.3558 9.20834 14.168C9.20834 13.9801 9.13371 13.7999 9.00087 13.6671C8.86803 13.5343 8.68787 13.4596 8.5 13.4596ZM11.3333 14.168C11.3333 13.9801 11.408 13.7999 11.5408 13.6671C11.6736 13.5343 11.8538 13.4596 12.0417 13.4596C12.2295 13.4596 12.4097 13.5343 12.5425 13.6671C12.6754 13.7999 12.75 13.9801 12.75 14.168C12.75 14.3558 12.6754 14.536 12.5425 14.6688C12.4097 14.8017 12.2295 14.8763 12.0417 14.8763C11.8538 14.8763 11.6736 14.8017 11.5408 14.6688C11.408 14.536 11.3333 14.3558 11.3333 14.168ZM5.66667 1.50084L5.13046 1.82278L5.3125 2.1263C5.13046 1.82278 5.12975 1.82278 5.12975 1.82278L5.1294 1.82314L5.12798 1.82384L5.1255 1.82561L5.11913 1.82951C5.09391 1.84531 5.06955 1.86245 5.04617 1.88086C4.98595 1.92681 4.92848 1.97624 4.87404 2.02891C4.73627 2.16136 4.55954 2.36395 4.37998 2.65755C4.02015 3.24653 3.65677 4.18861 3.56434 5.64424C3.536 6.08801 3.79277 6.46166 4.15863 6.63201C4.07524 6.71429 4.00906 6.81234 3.96394 6.92045C3.91883 7.02856 3.89567 7.14457 3.89584 7.26172V14.6992C3.89584 14.934 3.98912 15.1593 4.15517 15.3253C4.32122 15.4914 4.54643 15.5846 4.78125 15.5846C5.01608 15.5846 5.24129 15.4914 5.40734 15.3253C5.57339 15.1593 5.66667 14.934 5.66667 14.6992V7.26172C5.66667 6.94509 5.50057 6.66743 5.25088 6.51088C5.38029 6.41178 5.48512 6.28418 5.55723 6.13799C5.62934 5.99181 5.66679 5.83097 5.66667 5.66797V1.50084ZM4.27125 5.68922C4.35484 4.37384 4.67217 3.55536 4.95834 3.07051V5.66797C4.95834 5.7619 4.92102 5.85198 4.8546 5.9184C4.78818 5.98482 4.6981 6.02214 4.60417 6.02214C4.40265 6.02214 4.26027 5.86134 4.27125 5.68922ZM4.95834 7.29218V7.26172C4.95834 7.21475 4.93968 7.16971 4.90647 7.1365C4.87326 7.10329 4.82822 7.08464 4.78125 7.08464C4.73429 7.08464 4.68925 7.10329 4.65604 7.1365C4.62283 7.16971 4.60417 7.21475 4.60417 7.26172V7.64634L4.95834 7.29218ZM4.95834 8.29376V8.70884L4.60417 9.06301V8.64793L4.95834 8.29376ZM4.95834 10.1255V9.71043L4.60417 10.0646V10.4797L4.95834 10.1255ZM4.95834 11.1271V14.6992C4.95834 14.7462 4.93968 14.7912 4.90647 14.8244C4.87326 14.8576 4.82822 14.8763 4.78125 14.8763C4.73429 14.8763 4.68925 14.8576 4.65604 14.8244C4.62283 14.7912 4.60417 14.7462 4.60417 14.6992V11.4813L4.95834 11.1271Z" fill="#222222"/>
</svg>
