<svg width="30" height="27" viewBox="0 0 30 27" fill="none" xmlns="http://www.w3.org/2000/svg">
<path d="M22.4312 16.846C21.9825 15.2195 21.0126 13.7852 19.6702 12.763C18.3279 11.7408 16.6873 11.1872 15 11.1872C13.3128 11.1872 11.6721 11.7408 10.3298 12.763C8.98745 13.7852 8.01754 15.2195 7.56887 16.846L6.49965 20.722C6.30767 21.4179 6.27903 22.1488 6.41595 22.8576C6.55288 23.5664 6.85167 24.234 7.28903 24.8084C7.7264 25.3827 8.29051 25.8483 8.93738 26.1688C9.58426 26.4893 10.2964 26.656 11.0183 26.656H18.9817C19.7036 26.656 20.4158 26.4893 21.0627 26.1688C21.7095 25.8483 22.2736 25.3827 22.711 24.8084C23.1484 24.234 23.4472 23.5664 23.5841 22.8576C23.721 22.1488 23.6924 21.4179 23.5004 20.722L22.4312 16.846ZM21.2193 23.6722C20.9581 24.0181 20.6198 24.2983 20.2314 24.4908C19.843 24.6833 19.4152 24.7826 18.9817 24.781H11.0183C10.5852 24.781 10.1579 24.681 9.76974 24.4887C9.38161 24.2964 9.04313 24.017 8.78071 23.6724C8.51829 23.3278 8.33901 22.9272 8.25686 22.5019C8.17471 22.0766 8.1919 21.6381 8.30709 21.2206L9.37631 17.3446C9.71586 16.1138 10.4499 15.0283 11.4657 14.2547C12.4816 13.4812 13.7232 13.0622 15 13.0622C16.2769 13.0622 17.5185 13.4812 18.5343 14.2547C19.5502 15.0283 20.2842 16.1138 20.6237 17.3446L21.6929 21.2206C21.8098 21.638 21.8278 22.0768 21.7456 22.5024C21.6634 22.928 21.4832 23.3286 21.2193 23.6724V23.6722ZM8.56057 12.4945C8.72369 11.475 8.50736 10.3835 7.95119 9.42048C7.39502 8.45743 6.55783 7.72437 5.59355 7.35587C4.5609 6.96148 3.50762 7.02429 2.62672 7.53265C0.875526 8.54374 0.414686 11.0357 1.59963 13.0876C2.15562 14.0507 2.99287 14.7839 3.95715 15.1522C4.3843 15.3187 4.83834 15.4055 5.29678 15.4084C5.86791 15.4104 6.42939 15.261 6.92398 14.9754C7.80435 14.467 8.3856 13.5859 8.56057 12.4945ZM6.709 12.1981C6.62521 12.7213 6.36857 13.1309 5.98637 13.3516C5.60416 13.5723 5.12111 13.5896 4.62599 13.4006C4.06273 13.1855 3.56457 12.7414 3.2232 12.1501C2.56695 11.0134 2.72293 9.64232 3.56422 9.15646C3.77571 9.03644 4.01522 8.97462 4.25838 8.97728C4.48647 8.97964 4.71221 9.02366 4.92447 9.10718C5.48773 9.32239 5.9859 9.76648 6.32726 10.3577C6.66863 10.949 6.80416 11.6027 6.709 12.1981ZM8.76365 8.61013C9.42939 9.14233 10.1896 9.41948 10.9585 9.41943C11.1887 9.41935 11.4184 9.39458 11.6434 9.34554C13.6193 8.91599 14.8174 6.68286 14.3141 4.36753C14.0779 3.28085 13.5038 2.32747 12.6976 1.68288C11.8342 0.992648 10.8115 0.731379 9.81787 0.947473C7.84197 1.37696 6.6439 3.61009 7.14717 5.92542C7.38336 7.01216 7.95746 7.96554 8.76365 8.61013ZM10.2161 2.7797C10.3072 2.76005 10.4001 2.75023 10.4933 2.7504C10.8419 2.7504 11.2003 2.88675 11.5268 3.14773C11.9977 3.52419 12.3369 4.09894 12.4818 4.76614C12.7607 6.04905 12.1944 7.30724 11.2451 7.51361C10.8138 7.60736 10.3483 7.47681 9.93453 7.14593C9.46361 6.76941 9.12441 6.19466 8.97945 5.52751C8.70049 4.24425 9.26685 2.98607 10.2161 2.7797ZM27.3733 7.53265C26.4928 7.02429 25.439 6.96148 24.4065 7.35587C23.4422 7.72425 22.605 8.45743 22.049 9.42048C21.493 10.3835 21.2766 11.4752 21.4396 12.4945C21.6143 13.5859 22.1954 14.467 23.0762 14.9754C23.5708 15.2611 24.1322 15.4104 24.7034 15.4084C25.1618 15.4055 25.6159 15.3187 26.043 15.1522C27.0073 14.7839 27.8445 14.0507 28.4005 13.0876C29.5854 11.0357 29.1245 8.54374 27.3733 7.53265ZM26.7768 12.1501C26.4355 12.7414 25.9373 13.1855 25.374 13.4006C24.8792 13.5898 24.396 13.5724 24.0138 13.3516C23.6316 13.1308 23.3751 12.7213 23.2912 12.1981C23.1959 11.6027 23.3313 10.9493 23.6728 10.3583C24.0142 9.7673 24.5123 9.32292 25.0756 9.10771C25.2878 9.02411 25.5136 8.98001 25.7417 8.97757C25.9848 8.97491 26.2243 9.03673 26.4358 9.15675C27.2771 9.6422 27.4333 11.0131 26.7768 12.1501ZM18.3567 9.34554C18.5817 9.39458 18.8113 9.41935 19.0416 9.41943C19.8103 9.41943 20.5709 9.14233 21.2364 8.61013C22.0426 7.9656 22.6167 7.01216 22.8529 5.92548C23.3561 3.61015 22.1581 1.37702 20.1822 0.947531C19.1886 0.731555 18.1658 0.992648 17.3025 1.68294C16.4962 2.32747 15.9221 3.28091 15.686 4.36753C15.1827 6.68286 16.3807 8.91599 18.3567 9.34554ZM17.5182 4.76585C17.6632 4.09864 18.0024 3.52366 18.4733 3.14743C18.7998 2.88646 19.1582 2.75011 19.5067 2.75011C19.5999 2.74994 19.6929 2.75976 19.784 2.77941C20.7332 2.98577 21.2995 4.24425 21.0207 5.52687C20.8756 6.19407 20.5364 6.76905 20.0656 7.14534C19.6519 7.47616 19.1867 7.60671 18.7551 7.51302C17.8057 7.30695 17.2393 6.04859 17.5182 4.76585Z" fill="white"/>
</svg>
